<svg xmlns="http://www.w3.org/2000/svg" xmlns:xlink="http://www.w3.org/1999/xlink" viewBox="0 0 330.2 352.15"><defs><style>.cls-1{fill:#005b4c;opacity:0.07;}.cls-10,.cls-15,.cls-16,.cls-17,.cls-2,.cls-5{fill:none;}.cls-12,.cls-13,.cls-18,.cls-19,.cls-2,.cls-20,.cls-21,.cls-22,.cls-23,.cls-24,.cls-25,.cls-26,.cls-27,.cls-28,.cls-29,.cls-3,.cls-30,.cls-31,.cls-32,.cls-4,.cls-5,.cls-6,.cls-7,.cls-8,.cls-9{stroke:#33475c;}.cls-10,.cls-12,.cls-13,.cls-16,.cls-17,.cls-18,.cls-19,.cls-2,.cls-20,.cls-21,.cls-22,.cls-23,.cls-24,.cls-25,.cls-26,.cls-27,.cls-28,.cls-29,.cls-3,.cls-30,.cls-31,.cls-32,.cls-33,.cls-4,.cls-5,.cls-6,.cls-7,.cls-8,.cls-9{stroke-linecap:round;stroke-linejoin:round;}.cls-2{stroke-width:5px;}.cls-3{fill:#eaf0f6;}.cls-13,.cls-4{fill:#cbd6e3;}.cls-25,.cls-4{stroke-width:3px;}.cls-25,.cls-6{fill:#98acc3;}.cls-7{fill:#7b97b7;}.cls-8{fill:#506e91;}.cls-24,.cls-32,.cls-9{fill:#33475c;}.cls-9{opacity:0.25;}.cls-10{stroke:#bcc6cf;}.cls-11{fill:url(#linear-gradient);}.cls-12,.cls-14,.cls-33{fill:#fff;}.cls-16,.cls-17,.cls-33{stroke:#fff;}.cls-17{stroke-dasharray:5 5;}.cls-18{fill:#00a48d;}.cls-19{fill:#f7d3af;}.cls-20{fill:#8e98df;}.cls-21{fill:#415a77;}.cls-22{fill:#c78244;}.cls-23{fill:#d29b6a;}.cls-24{opacity:0.1;}.cls-26{fill:#7bded2;}.cls-27{fill:#00bea5;}.cls-28{fill:#ff7a53;}.cls-29{fill:#0091b2;}.cls-30{fill:#f9d28c;}.cls-31{fill:#b07557;}.cls-32{opacity:0.15;}</style><linearGradient id="linear-gradient" x1="179.65" y1="186.6" x2="179.65" y2="133.73" gradientUnits="userSpaceOnUse"><stop offset="0" stop-color="#fff" stop-opacity="0"/><stop offset="0.04" stop-color="#fff" stop-opacity="0.04"/><stop offset="0.09" stop-color="#fff" stop-opacity="0.14"/><stop offset="0.17" stop-color="#fff" stop-opacity="0.3"/><stop offset="0.25" stop-color="#fff" stop-opacity="0.5"/><stop offset="0.47" stop-color="#fff" stop-opacity="0.63"/><stop offset="0.95" stop-color="#fff" stop-opacity="0.96"/><stop offset="0.99" stop-color="#fff"/></linearGradient></defs><title>Asset 4</title><g id="Layer_2" data-name="Layer 2"><g id="Artwork"><path id="Garage_Shadow" data-name="Garage Shadow" class="cls-1" d="M275.67,329.44c4.1,1.64,7.09,5.22,10.9,7.45,10.31,6,24.37.3,31.14-9.55s7.91-22.44,8-34.39A87.49,87.49,0,0,0,324.34,276h-308a31.23,31.23,0,0,0-4.79,8.09c-1.93,5.67-1.69,12.45,2.14,17.05,4.13,4.95,11.26,6.2,17.69,5.79s12.79-2.14,19.23-1.78S63.92,308.71,66,314.8c1.34,3.84.52,8.07,1,12.11,1.46,12.89,15.89,21,28.84,20.36s24.67-7.4,36.05-13.61,23.8-12.17,36.7-10.89a10.9,10.9,0,0,1,5.28,1.61c3.11,2.17,3.68,6.43,4.92,10,4.79,13.86,22.13,19.71,36.59,17.18s27-11.11,39.84-18.17C261.53,330,269,326.77,275.67,329.44Z"/><polygon class="cls-2" points="302.73 275.7 53.92 275.7 53.92 171.47 177.65 92.79 302.73 172.14 302.73 275.7"/><rect class="cls-2" x="88.22" y="168.11" width="180.22" height="107.59"/><polygon class="cls-2" points="216.98 117.34 142.35 117.34 164.09 103.22 193.8 103.22 216.98 117.34"/><polygon class="cls-2" points="272.36 151.47 84.29 151.47 112.88 133.98 244.34 133.98 272.36 151.47"/><rect class="cls-2" x="53.92" y="168.11" width="34.3" height="17.48"/><rect class="cls-2" x="268.44" y="202.24" width="34.3" height="17.48"/><rect class="cls-2" x="268.44" y="236.36" width="34.3" height="17.48"/><polygon class="cls-2" points="303.18 276.04 268.5 276.04 268.44 270.49 303.12 270.49 303.18 276.04"/><rect class="cls-2" x="268.44" y="168.11" width="34.3" height="17.48"/><rect class="cls-2" x="53.92" y="202.24" width="34.3" height="17.48"/><rect class="cls-2" x="53.92" y="236.36" width="34.3" height="17.48"/><polygon class="cls-2" points="88.22 276.04 53.98 276.04 53.92 270.49 88.15 270.49 88.22 276.04"/><polygon class="cls-3" points="302.73 275.7 53.92 275.7 53.92 171.47 177.65 92.79 302.73 172.14 302.73 275.7"/><rect class="cls-4" x="88.22" y="168.11" width="180.22" height="107.59"/><polygon class="cls-5" points="216.98 117.34 142.35 117.34 164.09 103.22 193.8 103.22 216.98 117.34"/><polygon class="cls-5" points="272.36 151.47 84.29 151.47 112.88 133.98 244.34 133.98 272.36 151.47"/><rect class="cls-5" x="53.92" y="168.11" width="34.3" height="17.48"/><rect class="cls-5" x="268.44" y="202.24" width="34.3" height="17.48"/><rect class="cls-5" x="268.44" y="236.36" width="34.3" height="17.48"/><polygon class="cls-5" points="303.18 276.04 268.5 276.04 268.44 270.49 303.12 270.49 303.18 276.04"/><rect class="cls-5" x="268.44" y="168.11" width="34.3" height="17.48"/><rect class="cls-5" x="53.92" y="202.24" width="34.3" height="17.48"/><rect class="cls-5" x="53.92" y="236.36" width="34.3" height="17.48"/><polygon class="cls-5" points="88.22 276.04 53.98 276.04 53.92 270.49 88.15 270.49 88.22 276.04"/><rect class="cls-2" x="88.22" y="168.11" width="180.22" height="4.2"/><rect class="cls-2" x="88.22" y="172.31" width="180.22" height="4.2"/><rect class="cls-2" x="168.58" y="176.51" width="19.5" height="3.59"/><rect class="cls-6" x="88.22" y="168.11" width="180.22" height="4.2"/><rect class="cls-7" x="88.22" y="172.31" width="180.22" height="4.2"/><rect class="cls-8" x="168.58" y="176.51" width="19.5" height="3.59"/><polygon id="Garage_Roof_Beam" data-name="Garage Roof Beam" class="cls-9" points="53.92 171.47 53.92 192.68 178.33 113.69 302.73 192.68 302.73 172.14 177.65 92.79 53.92 171.47"/><path class="cls-2" d="M312.81,183.91a5.62,5.62,0,0,1-3.05-.89L178.33,99.56,46.9,183a5.72,5.72,0,0,1-6.13-9.65L175.26,88a5.71,5.71,0,0,1,6.13,0l134.49,85.4a5.71,5.71,0,0,1-3.07,10.54Z"/><path class="cls-2" d="M312.81,183.91a5.62,5.62,0,0,1-3.05-.89L178.33,99.56,46.9,183a5.72,5.72,0,0,1-6.13-9.65L175.26,88a5.71,5.71,0,0,1,6.13,0l134.49,85.4a5.71,5.71,0,0,1-3.07,10.54Z"/><path class="cls-8" d="M312.81,183.91a5.62,5.62,0,0,1-3.05-.89L178.33,99.56,46.9,183a5.72,5.72,0,0,1-6.13-9.65L175.26,88a5.71,5.71,0,0,1,6.13,0l134.49,85.4a5.71,5.71,0,0,1-3.07,10.54Z"/><path class="cls-8" d="M312.81,183.91a5.62,5.62,0,0,1-3.05-.89L178.33,99.56,46.9,183a5.72,5.72,0,0,1-6.13-9.65L175.26,88a5.71,5.71,0,0,1,6.13,0l134.49,85.4a5.71,5.71,0,0,1-3.07,10.54Z"/><path id="Garage_Roof_Beam-2" data-name="Garage Roof Beam" class="cls-7" d="M178.33,89.48l-140.2,89a5.7,5.7,0,0,0,3.08,4.77L178.33,96.2l137.11,87.07a5.68,5.68,0,0,0,3.09-4.77Z"/><g id="Garage_Chip" data-name="Garage Chip"><path class="cls-10" d="M130.47,148.6l13,.07"/><path class="cls-10" d="M133.16,146.59l3.81,0"/><path class="cls-10" d="M138.87,146.59c1.9,0-2.54,0,1.79,0"/></g><g id="Garage_Chip-2" data-name="Garage Chip"><path class="cls-10" d="M225.83,155.89l13,.07"/><path class="cls-10" d="M228.52,153.88l3.81,0"/><path class="cls-10" d="M234.23,153.88c1.91,0-2.54,0,1.79,0"/></g><g id="Garage_Chip-3" data-name="Garage Chip"><path class="cls-10" d="M209.49,136.74c-4.34,0-4,0-8.29-.06"/><path class="cls-10" d="M211.51,138.76l-3.81,0"/><path class="cls-10" d="M205.8,138.76c-1.91,0,2.54,0-1.8,0"/></g><g id="Garage_Lamp_Light" data-name="Garage Lamp Light"><path id="Garage_Lamp_Outer_Light" data-name="Garage Lamp Outer Light" class="cls-11" d="M195.25,132.92l41.25,43.54s-24.22,10.14-58.17,10.14c-29.76,0-55.53-10.28-55.53-10.28l38.83-43.4"/><path id="Garage_Lamp_Inner_Light" data-name="Garage Lamp Inner Light" class="cls-11" d="M195.25,132.92l27.8,43.54s-10.77,10.14-44.72,10.14c-29.76,0-42.08-10.28-42.08-10.28l25.38-43.4"/></g><g id="Garage_Lamp" data-name="Garage Lamp"><circle class="cls-2" cx="178.33" cy="134.91" r="5.72"/><path class="cls-2" d="M177.74,114.8c2.71-.16,5.17,2.06,6,4.83-2,.48-11.59.34-11.59.34S173.42,115,177.74,114.8Z"/><path class="cls-2" d="M172.14,120s-9.39,4.32-10.63,12.95c0,0,16.65,5.1,33.63,0,0,0-2.26-10.39-11.41-13.29Z"/><circle class="cls-12" cx="178.33" cy="134.91" r="5.72"/><path class="cls-13" d="M177.74,114.8c2.71-.16,5.17,2.06,6,4.83-2,.48-11.59.34-11.59.34S173.42,115,177.74,114.8Z"/><path class="cls-13" d="M172.14,120s-9.39,4.32-10.63,12.95c0,0,16.65,5.1,33.63,0,0,0-2.26-10.39-11.41-13.29Z"/><path class="cls-14" d="M176.76,118.25a11.38,11.38,0,0,1,.26-2.1c.07-.32.33-.86.46-1.32a5.42,5.42,0,0,0-1,.2c-.11.15-.21.29-.28.41a6.6,6.6,0,0,0-.86,2.15,12.12,12.12,0,0,0-.3,2.4h.29a2.07,2.07,0,0,1-.71.6,24.8,24.8,0,0,0-10.27,13c1.15.26,2.63.54,4.37.8a27.2,27.2,0,0,1,8.67-14.6h-.53A10.39,10.39,0,0,1,176.76,118.25Z"/><line class="cls-13" x1="183.73" y1="119.63" x2="172.14" y2="119.97"/><path class="cls-5" d="M172.14,120s1.28-4.93,5.6-5.17c2.71-.16,5.17,2.06,6,4.83"/><path class="cls-5" d="M161.51,132.92s16.65,5.1,33.63,0"/></g><g id="Garage_Chip-4" data-name="Garage Chip"><path class="cls-10" d="M75,187.85c-4.33,0-3.95,0-8.29-.07"/><path class="cls-10" d="M77,189.87l-3.81,0"/><path class="cls-10" d="M71.3,189.87c-1.9,0,2.54,0-1.79,0"/></g><g id="Garage_Chip-5" data-name="Garage Chip"><path class="cls-10" d="M72,216.52l13,.07"/><path class="cls-10" d="M74.66,214.51l3.8,0"/><path class="cls-10" d="M80.36,214.51c1.91,0-2.54,0,1.8,0"/></g><g id="Garage_Chip-6" data-name="Garage Chip"><path class="cls-10" d="M121.39,162.3c-4.33,0-4-.05-8.29-.07"/><path class="cls-10" d="M123.41,164.32l-3.81,0"/><path class="cls-10" d="M117.7,164.32c-1.9,0,2.54,0-1.79,0"/></g><g id="Garage_Chip-7" data-name="Garage Chip"><path class="cls-10" d="M271,183.57l13,.07"/><path class="cls-10" d="M273.71,181.56l3.81,0"/><path class="cls-10" d="M279.41,181.56c1.91,0-2.54,0,1.8,0"/></g><g id="Garage_Chip-8" data-name="Garage Chip"><path class="cls-10" d="M296.91,197.27c-4.33,0-4-.05-8.29-.07"/><path class="cls-10" d="M298.93,199.28l-3.81,0"/><path class="cls-10" d="M293.22,199.28c-1.91,0,2.54,0-1.79,0"/></g><g id="Garage_Chip-9" data-name="Garage Chip"><path class="cls-10" d="M284.69,215.25l-13-.07"/><path class="cls-10" d="M279.31,217.27c-4.34,0,3.21,0-1.12,0"/><path class="cls-10" d="M276.29,217.27c-1.91,0,2.54,0-1.79,0"/></g><path id="Garage_Lamp_Shadow" data-name="Garage Lamp Shadow" class="cls-9" d="M195.14,132.92s-2.26-10.39-11.41-13.29a6.87,6.87,0,0,0-4.13-4.56,4.75,4.75,0,0,1,.74,1.14,7,7,0,0,1,.55,3.43,12.27,12.27,0,0,1,5.79,6.47,16.61,16.61,0,0,1,.86,8.47A52.37,52.37,0,0,0,195.14,132.92Z"/><path class="cls-15" d="M27.93,249.57a13.25,13.25,0,0,1-.29-5.42,5.81,5.81,0,0,1,3.11-4.25,3.75,3.75,0,0,1,4.75,1.46c.59-.89-.72-2.27,0-3.08.48-.56,1.41-.22,1.91.3S38.32,239.8,39,240a19.88,19.88,0,0,1,1.69-7.93c.84-1.88,2.28-3.83,4.34-3.94s3.77,1.75,5.06,3.45L50,226.71c0-.7,0-1.53.63-1.9.94-.58,2,.57,2.5,1.56-.53-2.53,1.6-5.13,4.14-5.63a7.88,7.88,0,0,1,7,2.6A18.29,18.29,0,0,1,68,230.12a41,41,0,0,0-.7-15.33c-.79-3-2.32-6.23-5.23-7.39-2.15-.85-4.56-.41-6.82,0a42.2,42.2,0,0,0-7.53,2A37.34,37.34,0,0,0,41,213.2C36.86,216,32.77,219,29.6,222.83s-5.38,8.71-5.23,13.71"/><path class="cls-15" d="M24.12,244.24a.21.21,0,0,0,.35.18"/><g id="Startup_Light_Bulb_Idea" data-name="Startup Light Bulb Idea"><path class="cls-16" d="M102,84.2A26.15,26.15,0,0,0,96.07,80c-6.16-3.57-12.32-7.45-16.86-12.94S72,54.16,73.67,47.25c1.42-5.72,5.61-10.34,10.14-14.11,6-5,13-9,20.67-10.63s16-.51,22.52,3.89a40.09,40.09,0,0,1,8.7,8.65c4.33,5.51,8.23,11.73,9,18.69A25.75,25.75,0,0,1,138,73.53a32.32,32.32,0,0,1-18.73,9.82,8.83,8.83,0,0,0-4.35,1.41,7.88,7.88,0,0,0-1.87,2.64c-1.36,2.63-2.87,7.73-5.55,9C105,92.92,105.43,87.67,102,84.2Z"/><line class="cls-16" x1="62.04" y1="57.03" x2="42.51" y2="56.87"/><line class="cls-16" x1="83.11" y1="91.33" x2="75.75" y2="109.42"/><line class="cls-16" x1="69.47" y1="76.52" x2="53.52" y2="87.8"/><line class="cls-16" x1="157.58" y1="53.08" x2="177.11" y2="53.52"/><line class="cls-16" x1="137.01" y1="18.48" x2="144.63" y2="0.5"/><line class="cls-16" x1="150.44" y1="33.49" x2="166.55" y2="22.44"/><path class="cls-17" d="M107.52,99q-1.11,15.84-.75,31.73"/><path class="cls-16" d="M57,71a41.38,41.38,0,0,0,5.45-2.93"/><path class="cls-16" d="M70.36,91.76l4.09-6.35"/><path class="cls-16" d="M154.45,43.36a43.12,43.12,0,0,1,7.42-1.87"/><path class="cls-16" d="M143.35,25.88a33.39,33.39,0,0,1,6.37-6.42"/><path class="cls-16" d="M105.1,63.11a80.45,80.45,0,0,0,2-14.15,7,7,0,0,0-.31-3,2.55,2.55,0,0,0-2.27-1.72A3.84,3.84,0,0,0,102,45.76a7.37,7.37,0,0,0-1.93,2.84,2.49,2.49,0,0,0,1.12,3,3.61,3.61,0,0,0,1.5.18q3.69-.09,7.35-.51a10.71,10.71,0,0,0,4.08-1.06,4,4,0,0,0,2.17-3.39,2.47,2.47,0,0,0-2.83-2.38A3,3,0,0,0,112,45.55c-1.77,2.33-1.52,5.56-1.16,8.46.42,3.45.9,7,2.57,10a45.3,45.3,0,0,0,8.14-9.44,13.84,13.84,0,0,0,2.32-5.43c.63-4.54-2.56-8.63-5.66-12-1.59-1.75-3.33-3.54-5.59-4.22a10.6,10.6,0,0,0-6.36.45,23.33,23.33,0,0,0-10,6.61,12.73,12.73,0,0,0-2.35,3.56c-1.29,3.16-.63,6.85,1,9.85a30.93,30.93,0,0,0,6.63,7.72c1.56,1.43,3.25,2.88,5.32,3.26,3,.55,6-1.2,8.92-.71a22.72,22.72,0,0,1,.45,5.2L104,70.47a6.36,6.36,0,0,1-.77-3.52s.56-1.2,2.87-1.57"/><path class="cls-16" d="M103.53,69.3a8.89,8.89,0,0,0,.67,2.5,2,2,0,0,0,.87,1.06,2.12,2.12,0,0,0,1,.13,43.54,43.54,0,0,0,9.3-1.32,1,1,0,0,0,.44-.19.91.91,0,0,0,.23-.58,15.24,15.24,0,0,0,.11-3.31"/><path class="cls-16" d="M107.46,73.59a3.13,3.13,0,0,0,3.35,1.75,3.58,3.58,0,0,0,2.77-2.68"/><path class="cls-16" d="M104,68.06a68,68,0,0,1,11.25-1.85"/></g><path class="cls-17" d="M106.77,130.68c0,1.65.08,3.3.14,4.94.5,13.66,2,27.78,8.85,39.58s20.52,20.64,33.92,18"/><path class="cls-2" d="M149.66,262.47a5.76,5.76,0,0,0-1,2,1.8,1.8,0,0,0,.75,2,2.25,2.25,0,0,0,1.26.12,10.73,10.73,0,0,0,7.7-4.77,5.65,5.65,0,0,0,.85-1.91,6.48,6.48,0,0,0,0-2.24A1.71,1.71,0,0,0,159,257c-.43-.73-1.52-.56-2.32-.28-1.26.42-3.12.69-4.14,1.54S150.53,261.23,149.66,262.47Z"/><path class="cls-2" d="M145.46,228.26c-1.89.72-3.92,1.55-5,3.28a6.19,6.19,0,0,0-.45,4.78,19.37,19.37,0,0,0,2.06,4.46,178.92,178.92,0,0,1,9,18.64q4.22-1.1,8.32-2.55a191.13,191.13,0,0,1-6.64-20.62,53.08,53.08,0,0,0,11.4-.56c.94-.15,2-.46,2.35-1.36s-.44-1.9-1.17-2.59a40.11,40.11,0,0,0-8.89-6.9c-1.55-.79-3.55.56-5.15,1.17Z"/><path class="cls-2" d="M169.68,212a11.1,11.1,0,0,0-5-7.33l-.8-.6a46.81,46.81,0,0,1-1.08-5.52c.06.62-5.87,1.38-6.18,2.63-.2.81.75,2.32,1,3.09s.52,1.73.73,2.61a5.83,5.83,0,0,0-.68.72,9.55,9.55,0,0,0-1.56,4.45,123.22,123.22,0,0,0-1.41,12.42,1.45,1.45,0,0,0,0,.51,1.43,1.43,0,0,0,.56.66l9.39,7.35a3.61,3.61,0,0,0,1.56.84.64.64,0,0,0,.41-.05.73.73,0,0,0,.25-.49,144.82,144.82,0,0,0,2.74-17.81A16.2,16.2,0,0,0,169.68,212Z"/><path class="cls-2" d="M146.25,217a4.54,4.54,0,0,1-2.32,1.4,4.94,4.94,0,0,1-1.27-.08,43.88,43.88,0,0,0-11.73-.19,1.22,1.22,0,0,0-1.37,1.46v4.06a.49.49,0,0,0,.12.39.51.51,0,0,0,.24.07q7.19.81,14.42,1a5.31,5.31,0,0,0,1.64-.14,5.45,5.45,0,0,0,1.78-1.08q4.93-3.93,9.8-7.94a12.6,12.6,0,0,0,3.09-3.22,4.71,4.71,0,0,0,.64-3.38c-1.05-4.43-5-.6-6.87.85Q150.17,213.37,146.25,217Z"/><path class="cls-2" d="M126.81,219.15a10.11,10.11,0,0,0-3.63,3.52,33.55,33.55,0,0,0,6.92.75,1.87,1.87,0,0,0,1.07-.22c.58-.37.6-1.19.57-1.88-.09-1.5,0-2.26-1.6-2.63A5.07,5.07,0,0,0,126.81,219.15Z"/><path class="cls-2" d="M168.44,244c-1.63.28-4.46-2.41-5.7-1.55-1.85,1.27-.79-4.21-1-1.94-.48,6.05-1.73,20.64-2.21,26.69a4.91,4.91,0,0,1-.34,1.75,5.09,5.09,0,0,1-1.55,1.75l-5.84,4.87c7.51.13,11.84.5,22.42.11l-6.07-5.43a6.16,6.16,0,0,1-1.73-2.08,6.32,6.32,0,0,1-.2-3.06Z"/><path class="cls-2" d="M161.52,244.77a39,39,0,0,1-9.88-1.67,3.24,3.24,0,0,1-1.92-1.16,3.18,3.18,0,0,1-.35-1.73c0-4.44.21-5.08,4.43-5.14a89.76,89.76,0,0,0,10.23-.64,1.64,1.64,0,0,0,1.81-1.76q1.51-11.5,3.61-22.92c.32-1.74.85-3.74,2.48-4.43,2.33-1,7.46,1,7.18,1.75l-5,32.41a6,6,0,0,1-1.26,3.4,5.59,5.59,0,0,1-3.17,1.33,50.83,50.83,0,0,1-6.57.62Z"/><path class="cls-2" d="M156.12,186.48c-2.68.1-4.45,3-5,5.23a10.6,10.6,0,0,0,1,6.72c1.33,2.84,4.11,5.45,7.21,5,2.34-.36,4.13-2.42,4.85-4.67a9.55,9.55,0,0,0-1.1-8.07C161.56,188.33,158.93,186.38,156.12,186.48Z"/><ellipse class="cls-2" cx="154.13" cy="196.8" rx="0.34" ry="0.85" transform="translate(-76.37 100.07) rotate(-29.17)"/><path class="cls-2" d="M151.91,196.26c0,1.1,0,3.14,0,4.24l2.27.51"/><path class="cls-2" d="M156.3,200.8a.51.51,0,0,1,.06.27,1.84,1.84,0,0,1-.49,1.15,1.68,1.68,0,0,1-.29.24"/><path class="cls-2" d="M154,194.52a1.38,1.38,0,0,0-1.61.7"/><path class="cls-2" d="M164.84,192.53a10.83,10.83,0,0,0-2.15-6.05l0,0a2.68,2.68,0,0,0-1.82-1,3.05,3.05,0,0,0-2.44.91,1.92,1.92,0,0,0-1.87-1.37,7.93,7.93,0,0,0-2.44.51,12.17,12.17,0,0,1-4.37.42,10.46,10.46,0,0,0-1.85-.08,3.9,3.9,0,0,0-3.35,3.64,4.34,4.34,0,0,0,2.87,4.13,6.47,6.47,0,0,0,5.59-.25,15,15,0,0,1,2.94-1.76,4,4,0,0,1,4.65,1.72c.67,1.36,1.3,2.75,1.88,4.15a5.94,5.94,0,0,1,.62,3.6A15.57,15.57,0,0,0,164.84,192.53Z"/><path class="cls-2" d="M160.27,195.8a3.7,3.7,0,0,1,.44-1.69,1.52,1.52,0,0,1,.67-.7,1.18,1.18,0,0,1,1.24.29,2.21,2.21,0,0,1,.59,1.19,3.43,3.43,0,0,1-.19,2.05,2.55,2.55,0,0,1-1.48,1.4c-.08,0-.21-.05-.14-.09"/><path class="cls-7" d="M149.66,262.47a5.76,5.76,0,0,0-1,2,1.8,1.8,0,0,0,.75,2,2.25,2.25,0,0,0,1.26.12,10.73,10.73,0,0,0,7.7-4.77,5.65,5.65,0,0,0,.85-1.91,6.48,6.48,0,0,0,0-2.24A1.71,1.71,0,0,0,159,257c-.43-.73-1.52-.56-2.32-.28-1.26.42-3.12.69-4.14,1.54S150.53,261.23,149.66,262.47Z"/><path class="cls-12" d="M145.46,228.26c-1.89.72-3.92,1.55-5,3.28a6.19,6.19,0,0,0-.45,4.78,19.37,19.37,0,0,0,2.06,4.46,178.92,178.92,0,0,1,9,18.64q4.22-1.1,8.32-2.55a191.13,191.13,0,0,1-6.64-20.62,53.08,53.08,0,0,0,11.4-.56c.94-.15,2-.46,2.35-1.36s-.44-1.9-1.17-2.59a40.11,40.11,0,0,0-8.89-6.9c-1.55-.79-3.55.56-5.15,1.17Z"/><path class="cls-18" d="M169.68,212a11.1,11.1,0,0,0-5-7.33l-.8-.6a46.81,46.81,0,0,1-1.08-5.52c.06.62-5.87,1.38-6.18,2.63-.2.81.75,2.32,1,3.09s.52,1.73.73,2.61a5.83,5.83,0,0,0-.68.72,9.55,9.55,0,0,0-1.56,4.45,123.22,123.22,0,0,0-1.41,12.42,1.45,1.45,0,0,0,0,.51,1.43,1.43,0,0,0,.56.66l9.39,7.35a3.61,3.61,0,0,0,1.56.84.64.64,0,0,0,.41-.05.73.73,0,0,0,.25-.49,144.82,144.82,0,0,0,2.74-17.81A16.2,16.2,0,0,0,169.68,212Z"/><path class="cls-18" d="M146.25,217a4.54,4.54,0,0,1-2.32,1.4,4.94,4.94,0,0,1-1.27-.08,43.88,43.88,0,0,0-11.73-.19,1.22,1.22,0,0,0-1.37,1.46v4.06a.49.49,0,0,0,.12.39.51.51,0,0,0,.24.07q7.19.81,14.42,1a5.31,5.31,0,0,0,1.64-.14,5.45,5.45,0,0,0,1.78-1.08q4.93-3.93,9.8-7.94a12.6,12.6,0,0,0,3.09-3.22,4.71,4.71,0,0,0,.64-3.38c-1.05-4.43-5-.6-6.87.85Q150.17,213.37,146.25,217Z"/><path class="cls-19" d="M126.81,219.15a10.11,10.11,0,0,0-3.63,3.52,33.55,33.55,0,0,0,6.92.75,1.87,1.87,0,0,0,1.07-.22c.58-.37.6-1.19.57-1.88-.09-1.5,0-2.26-1.6-2.63A5.07,5.07,0,0,0,126.81,219.15Z"/><path class="cls-6" d="M168.44,244c-1.63.28-4.46-2.41-5.7-1.55-1.85,1.27-.79-4.21-1-1.94-.48,6.05-1.73,20.64-2.21,26.69a4.91,4.91,0,0,1-.34,1.75,5.09,5.09,0,0,1-1.55,1.75l-5.84,4.87c7.51.13,11.84.5,22.42.11l-6.07-5.43a6.16,6.16,0,0,1-1.73-2.08,6.32,6.32,0,0,1-.2-3.06Z"/><path class="cls-20" d="M161.52,244.77a39,39,0,0,1-9.88-1.67,3.24,3.24,0,0,1-1.92-1.16,3.18,3.18,0,0,1-.35-1.73c0-4.44.21-5.08,4.43-5.14a89.76,89.76,0,0,0,10.23-.64,1.64,1.64,0,0,0,1.81-1.76q1.51-11.5,3.61-22.92c.32-1.74.85-3.74,2.48-4.43,2.33-1,7.46,1,7.18,1.75l-5,32.41a6,6,0,0,1-1.26,3.4,5.59,5.59,0,0,1-3.17,1.33,50.83,50.83,0,0,1-6.57.62Z"/><path class="cls-19" d="M156.12,186.48c-2.68.1-4.45,3-5,5.23a10.6,10.6,0,0,0,1,6.72c1.33,2.84,4.11,5.45,7.21,5,2.34-.36,4.13-2.42,4.85-4.67a9.55,9.55,0,0,0-1.1-8.07C161.56,188.33,158.93,186.38,156.12,186.48Z"/><ellipse class="cls-5" cx="154.13" cy="196.8" rx="0.34" ry="0.85" transform="translate(-76.37 100.07) rotate(-29.17)"/><path class="cls-19" d="M151.91,196.26c0,1.1,0,3.14,0,4.24l2.27.51"/><path class="cls-5" d="M156.3,200.8a.51.51,0,0,1,.06.27,1.84,1.84,0,0,1-.49,1.15,1.68,1.68,0,0,1-.29.24"/><path class="cls-5" d="M154,194.52a1.38,1.38,0,0,0-1.61.7"/><path class="cls-21" d="M164.84,192.53a10.83,10.83,0,0,0-2.15-6.05l0,0a2.68,2.68,0,0,0-1.82-1,3.05,3.05,0,0,0-2.44.91,1.92,1.92,0,0,0-1.87-1.37,7.93,7.93,0,0,0-2.44.51,12.17,12.17,0,0,1-4.37.42,10.46,10.46,0,0,0-1.85-.08,3.9,3.9,0,0,0-3.35,3.64,4.34,4.34,0,0,0,2.87,4.13,6.47,6.47,0,0,0,5.59-.25,15,15,0,0,1,2.94-1.76,4,4,0,0,1,4.65,1.72c.67,1.36,1.3,2.75,1.88,4.15a5.94,5.94,0,0,1,.62,3.6A15.57,15.57,0,0,0,164.84,192.53Z"/><path class="cls-19" d="M160.27,195.8a3.7,3.7,0,0,1,.44-1.69,1.52,1.52,0,0,1,.67-.7,1.18,1.18,0,0,1,1.24.29,2.21,2.21,0,0,1,.59,1.19,3.43,3.43,0,0,1-.19,2.05,2.55,2.55,0,0,1-1.48,1.4c-.08,0-.21-.05-.14-.09"/><rect class="cls-2" x="88.22" y="226.61" width="56.49" height="49.09"/><rect class="cls-2" x="107.72" y="226.61" width="16.81" height="24.21"/><rect class="cls-22" x="88.22" y="226.61" width="56.49" height="49.09"/><rect class="cls-23" x="107.72" y="226.61" width="16.81" height="24.21"/><polygon id="Garage_Desk_1_Shadow" data-name="Garage Desk 1 Shadow" class="cls-9" points="88.22 226.61 88.22 275.7 90.23 275.7 139.32 226.61 88.22 226.61"/><path id="Garage_Shadow-2" data-name="Garage Shadow" class="cls-24" d="M115.11,226.61a2.69,2.69,0,0,1-2.57-1.9l-7.39-24.21a2.67,2.67,0,0,1,.84-2.84L88.22,214v12.62Z"/><path id="Garage_Laptop_1_Screen" data-name="Garage Laptop 1 Screen" class="cls-14" d="M110.29,198.93s13.47,6.24,6.82,22.3Z"/><path id="Garage_Laptop_1" data-name="Garage Laptop 1" class="cls-25" d="M139.32,226.61H115.11a2.69,2.69,0,0,1-2.57-1.9l-7.39-24.21a2.69,2.69,0,1,1,5.14-1.57l6.82,22.3h22.21a2.69,2.69,0,1,1,0,5.38Z"/><g id="Garage_Shrub_Left" data-name="Garage Shrub Left"><path class="cls-2" d="M37.23,271.67a26.15,26.15,0,0,0-2.86-8.18L24.5,242.85q.36,7.11.27,14.24a153.61,153.61,0,0,0-8.17-18.36,62.66,62.66,0,0,1,2.49,22.78A103.2,103.2,0,0,0,3.94,240.06c4.77,9.53,9.57,19.12,12.51,29.37a82.42,82.42,0,0,0-13.95-9.7c4.23,2.33,8.19,9.18,11.52,12.74.75.8,1.54,1.82,2.36,2.9H37A10.73,10.73,0,0,0,37.23,271.67Z"/><path class="cls-2" d="M27.38,254.51c-.9-1.8-.69-4.79,1.79-4.84-1.51-1.49-2-3.71-2.34-5.81a16.38,16.38,0,0,1-.19-5.75,6.32,6.32,0,0,1,3.2-4.57,4,4,0,0,1,5.07,1.36,17.74,17.74,0,0,1,0-4.12,1.78,1.78,0,0,1,.34-1,1.33,1.33,0,0,1,1.73-.05,3.78,3.78,0,0,1,1.08,1.55c-.54-4.54,2.23-8.86,5.54-12a17,17,0,0,1,7.92-4.64,13.06,13.06,0,0,1,11.23,3.2A16.83,16.83,0,0,1,68,228.48a2.45,2.45,0,1,1,4.07,2.22,10.15,10.15,0,0,1,6.39-4.58,8.12,8.12,0,0,1,7.41,2.19,9.77,9.77,0,0,1,2.32,7.28,28.79,28.79,0,0,1-1.81,7.62c.9-1,2.69.29,2.5,1.58A3.07,3.07,0,0,1,86,247c2.71,0,5.59.39,7.7,2.09,2.89,2.31,3.58,6.43,3.4,10.13a25.22,25.22,0,0,1-4.53,13.61c-4.15,5.69-13.49,9.63-20.52,9.23-3.33-.19-6.47-1.38-9.68-2.18-3.77-.94-7.11-.73-10.94-.47-4.52.3-8-.84-10.33-4.87-2.53-4.38-3.56-9.49-6.23-13.83-1.89-3.08-4.9-3.12-7-5.53A3.17,3.17,0,0,1,27.38,254.51Z"/><path class="cls-2" d="M21.87,269.75a10,10,0,0,1-1.41-4.82,4.72,4.72,0,0,1,2.41-4.18,3.12,3.12,0,0,1,4.22,1.54,5.24,5.24,0,0,1,.15-3.19c.49-1,1.92-1.51,2.69-.74a8.49,8.49,0,0,1,1.59-8,7.11,7.11,0,0,1,7.76-1.93,6.11,6.11,0,0,1,3.57,6.93c.48-1.38,1.33-3.75,2.73-3.32,1.23.38.74,2.5.51,3.76.65-3.8,5.08-6.58,8.67-5.18s4.82,6.89,2,9.47A2,2,0,0,1,60,261a2.57,2.57,0,0,1-2.1,3,3.89,3.89,0,0,1,5.18,1.4,5.84,5.84,0,0,1-.09,5.71,12.32,12.32,0,0,1-4.18,4.19C47.91,282.54,28.67,282.49,21.87,269.75Z"/><path class="cls-26" d="M37.23,271.67a26.15,26.15,0,0,0-2.86-8.18L24.5,242.85q.36,7.11.27,14.24a153.61,153.61,0,0,0-8.17-18.36,62.66,62.66,0,0,1,2.49,22.78A103.2,103.2,0,0,0,3.94,240.06c4.77,9.53,9.57,19.12,12.51,29.37a82.42,82.42,0,0,0-13.95-9.7c4.23,2.33,8.19,9.18,11.52,12.74.75.8,1.54,1.82,2.36,2.9H37A10.73,10.73,0,0,0,37.23,271.67Z"/><path class="cls-18" d="M27.38,254.51c-.9-1.8-.69-4.79,1.79-4.84-1.51-1.49-2-3.71-2.34-5.81a16.38,16.38,0,0,1-.19-5.75,6.32,6.32,0,0,1,3.2-4.57,4,4,0,0,1,5.07,1.36,17.74,17.74,0,0,1,0-4.12,1.78,1.78,0,0,1,.34-1,1.33,1.33,0,0,1,1.73-.05,3.78,3.78,0,0,1,1.08,1.55c-.54-4.54,2.23-8.86,5.54-12a17,17,0,0,1,7.92-4.64,13.06,13.06,0,0,1,11.23,3.2A16.83,16.83,0,0,1,68,228.48a2.45,2.45,0,1,1,4.07,2.22,10.15,10.15,0,0,1,6.39-4.58,8.12,8.12,0,0,1,7.41,2.19,9.77,9.77,0,0,1,2.32,7.28,28.79,28.79,0,0,1-1.81,7.62c.9-1,2.69.29,2.5,1.58A3.07,3.07,0,0,1,86,247c2.71,0,5.59.39,7.7,2.09,2.89,2.31,3.58,6.43,3.4,10.13a25.22,25.22,0,0,1-4.53,13.61c-4.15,5.69-13.49,9.63-20.52,9.23-3.33-.19-6.47-1.38-9.68-2.18-3.77-.94-7.11-.73-10.94-.47-4.52.3-8-.84-10.33-4.87-2.53-4.38-3.56-9.49-6.23-13.83-1.89-3.08-4.9-3.12-7-5.53A3.17,3.17,0,0,1,27.38,254.51Z"/><path class="cls-27" d="M21.87,269.75a10,10,0,0,1-1.41-4.82,4.72,4.72,0,0,1,2.41-4.18,3.12,3.12,0,0,1,4.22,1.54,5.24,5.24,0,0,1,.15-3.19c.49-1,1.92-1.51,2.69-.74a8.49,8.49,0,0,1,1.59-8,7.11,7.11,0,0,1,7.76-1.93,6.11,6.11,0,0,1,3.57,6.93c.48-1.38,1.33-3.75,2.73-3.32,1.23.38.74,2.5.51,3.76.65-3.8,5.08-6.58,8.67-5.18s4.82,6.89,2,9.47A2,2,0,0,1,60,261a2.57,2.57,0,0,1-2.1,3,3.89,3.89,0,0,1,5.18,1.4,5.84,5.84,0,0,1-.09,5.71,12.32,12.32,0,0,1-4.18,4.19C47.91,282.54,28.67,282.49,21.87,269.75Z"/><path class="cls-9" d="M96.22,252.66a23.25,23.25,0,0,1-27.94,23.87c-2-.41-4.16-1.29-4.88-3.19a5.34,5.34,0,0,1,.39-4.85c-6.36,6.23-14.71,8.93-23.59,8.36s-16.52-5-22-12a36.25,36.25,0,0,1,2,10.55c-4.95-4.41-11-10.72-16.24-14.85l-1.39-.79c4.23,2.33,8.19,9.18,11.52,12.74.75.8,1.54,1.82,2.36,2.9H26.57c5.87,4.66,14.44,5.7,22.14,4.05a17.8,17.8,0,0,0,2.74,0c3.83-.26,7.17-.47,10.94.47,3.21.8,6.35,2,9.68,2.18,7,.4,16.37-3.54,20.52-9.23a25.22,25.22,0,0,0,4.53-13.61A16.1,16.1,0,0,0,96.22,252.66Z"/></g><path class="cls-2" d="M192.53,240.07c.26-3.57.72-.2,5,.58-.55,6.46-2.17,18-2.07,24.6a4.29,4.29,0,0,0,1.73,3.76,75.84,75.84,0,0,0,8.05,6.7c-7.54,0-15.9.11-23.33,0,2.49-2.46,5-4.72,7.47-7.18a7.44,7.44,0,0,0,1.49-1.83,7.22,7.22,0,0,0,.54-2.92c.21-4.57.61-13.52.9-18.08C192.31,245.57,192.53,240.18,192.53,240.07Z"/><path class="cls-2" d="M184.66,234.91c7,1,13.51,1.77,20.55,2.46a12.2,12.2,0,0,1-.48,4.37c-.21.71-12.35-.86-13.6-1C182.53,239.52,184.5,240.56,184.66,234.91Z"/><path class="cls-2" d="M210.11,262.47a6,6,0,0,1,1,2,1.82,1.82,0,0,1-.76,2,2.24,2.24,0,0,1-1.26.12,10.75,10.75,0,0,1-7.7-4.77,5.86,5.86,0,0,1-.85-1.91,6.48,6.48,0,0,1,0-2.24,1.72,1.72,0,0,1,.19-.68c.42-.73,1.51-.56,2.31-.28,1.26.42,3.13.69,4.15,1.54S209.25,261.23,210.11,262.47Z"/><path class="cls-2" d="M214.32,228.26c1.88.72,3.91,1.55,5,3.28a6.19,6.19,0,0,1,.45,4.78,19.37,19.37,0,0,1-2.06,4.46,178.92,178.92,0,0,0-9,18.64q-4.22-1.1-8.32-2.55a193.43,193.43,0,0,0,6.65-20.62,53,53,0,0,1-11.4-.56c-.95-.15-2-.46-2.36-1.36s.45-1.9,1.17-2.59a40.11,40.11,0,0,1,8.89-6.9c1.55-.79,3.55.56,5.16,1.17Z"/><path class="cls-2" d="M205.05,224.42A120.41,120.41,0,0,0,203.63,212a9.33,9.33,0,0,0-1.56-4.45,5.83,5.83,0,0,0-.68-.72c.21-.88.45-1.75.73-2.61s1.2-2.28,1-3.09c-.31-1.25-6.24-2-6.18-2.63a46.78,46.78,0,0,1-1.07,5.52l-.81.6a11.14,11.14,0,0,0-5,7.33,15.58,15.58,0,0,0,0,3.48,142.91,142.91,0,0,0,2.73,17.81.73.73,0,0,0,.25.49.67.67,0,0,0,.42.05,3.63,3.63,0,0,0,1.55-.84l9.39-7.35a1.08,1.08,0,0,0,.6-1.17Z"/><path class="cls-2" d="M213.52,216.3a3.31,3.31,0,0,0,3.59,1.32,43.48,43.48,0,0,1,11.73-.18,1.6,1.6,0,0,1,1.17.5,1.65,1.65,0,0,1,.2,1V223a.49.49,0,0,1-.12.39.45.45,0,0,1-.24.07q-7.18.81-14.41,1a4.09,4.09,0,0,1-3.43-1.22q-4.94-3.93-9.8-7.94a12.48,12.48,0,0,1-3.09-3.23,4.67,4.67,0,0,1-.63-3.37c1-4.43,5-.6,6.87.85Q209.6,212.68,213.52,216.3Z"/><path class="cls-2" d="M233,218.48a10.11,10.11,0,0,1,3.63,3.52,32.8,32.8,0,0,1-6.92.74,2,2,0,0,1-1.07-.21c-.58-.37-.6-1.19-.56-1.88.08-1.5-.06-2.26,1.59-2.63A5,5,0,0,1,233,218.48Z"/><path class="cls-2" d="M208.6,191.71c-.44-2-1.91-4.53-4.13-5.1h0c-2.34-.67-5.34-.44-7.08,1.26a9.5,9.5,0,0,0-2.34,4.11,12.46,12.46,0,0,0,.81,7.54l0,.12,0,0h0a6.28,6.28,0,0,0,4.49,3.75c3.1.47,5.88-2.14,7.21-5A10.6,10.6,0,0,0,208.6,191.71Z"/><ellipse class="cls-2" cx="206.11" cy="196.12" rx="0.85" ry="0.34" transform="translate(-65.59 280.52) rotate(-60.83)"/><path class="cls-2" d="M208.33,195.58c0,1.11,0,3.15,0,4.25l-2.27.51"/><path class="cls-2" d="M204,200.13a.42.42,0,0,0-.06.27,1.84,1.84,0,0,0,.49,1.15,1.68,1.68,0,0,0,.29.24"/><path class="cls-2" d="M206.27,193.85a1.36,1.36,0,0,1,.93.06,1.41,1.41,0,0,1,.68.64"/><path class="cls-2" d="M208.68,192.16c0-.15,0-.3-.08-.45-.44-2-1.91-4.53-4.13-5.1h0c-2.34-.67-5.34-.44-7.08,1.26a9.5,9.5,0,0,0-2.34,4.11,12.46,12.46,0,0,0,.81,7.54l0,.12,0,0h0a7.23,7.23,0,0,0,2.47,3,29.29,29.29,0,0,1,1.49-10.71,1.34,1.34,0,0,1,.35-.69,1.42,1.42,0,0,1,1-.24A26.31,26.31,0,0,1,208.68,192.16Z"/><path class="cls-2" d="M200,195.13a3.7,3.7,0,0,0-.44-1.69,1.52,1.52,0,0,0-.67-.7,1.17,1.17,0,0,0-1.24.28,2.27,2.27,0,0,0-.59,1.2,3.43,3.43,0,0,0,.19,2.05,2.58,2.58,0,0,0,1.48,1.4c.08,0,.21,0,.14-.09"/><path class="cls-6" d="M192.53,240.07c.26-3.57.72-.2,5,.58-.55,6.46-2.17,18-2.07,24.6a4.29,4.29,0,0,0,1.73,3.76,75.84,75.84,0,0,0,8.05,6.7c-7.54,0-15.9.11-23.33,0,2.49-2.46,5-4.72,7.47-7.18a7.44,7.44,0,0,0,1.49-1.83,7.22,7.22,0,0,0,.54-2.92c.21-4.57.61-13.52.9-18.08C192.31,245.57,192.53,240.18,192.53,240.07Z"/><path class="cls-28" d="M184.66,234.91c7,1,13.51,1.77,20.55,2.46a12.2,12.2,0,0,1-.48,4.37c-.21.71-12.35-.86-13.6-1C182.53,239.52,184.5,240.56,184.66,234.91Z"/><path class="cls-8" d="M210.11,262.47a6,6,0,0,1,1,2,1.82,1.82,0,0,1-.76,2,2.24,2.24,0,0,1-1.26.12,10.75,10.75,0,0,1-7.7-4.77,5.86,5.86,0,0,1-.85-1.91,6.48,6.48,0,0,1,0-2.24,1.72,1.72,0,0,1,.19-.68c.42-.73,1.51-.56,2.31-.28,1.26.42,3.13.69,4.15,1.54S209.25,261.23,210.11,262.47Z"/><path class="cls-29" d="M214.32,228.26c1.88.72,3.91,1.55,5,3.28a6.19,6.19,0,0,1,.45,4.78,19.37,19.37,0,0,1-2.06,4.46,178.92,178.92,0,0,0-9,18.64q-4.22-1.1-8.32-2.55a193.43,193.43,0,0,0,6.65-20.62,53,53,0,0,1-11.4-.56c-.95-.15-2-.46-2.36-1.36s.45-1.9,1.17-2.59a40.11,40.11,0,0,1,8.89-6.9c1.55-.79,3.55.56,5.16,1.17Z"/><path class="cls-30" d="M205.05,224.42A120.41,120.41,0,0,0,203.63,212a9.33,9.33,0,0,0-1.56-4.45,5.83,5.83,0,0,0-.68-.72c.21-.88.45-1.75.73-2.61s1.2-2.28,1-3.09c-.31-1.25-6.24-2-6.18-2.63a46.78,46.78,0,0,1-1.07,5.52l-.81.6a11.14,11.14,0,0,0-5,7.33,15.58,15.58,0,0,0,0,3.48,142.91,142.91,0,0,0,2.73,17.81.73.73,0,0,0,.25.49.67.67,0,0,0,.42.05,3.63,3.63,0,0,0,1.55-.84l9.39-7.35a1.08,1.08,0,0,0,.6-1.17Z"/><path class="cls-30" d="M213.52,216.3a3.31,3.31,0,0,0,3.59,1.32,43.48,43.48,0,0,1,11.73-.18,1.6,1.6,0,0,1,1.17.5,1.65,1.65,0,0,1,.2,1V223a.49.49,0,0,1-.12.39.45.45,0,0,1-.24.07q-7.18.81-14.41,1a4.09,4.09,0,0,1-3.43-1.22q-4.94-3.93-9.8-7.94a12.48,12.48,0,0,1-3.09-3.23,4.67,4.67,0,0,1-.63-3.37c1-4.43,5-.6,6.87.85Q209.6,212.68,213.52,216.3Z"/><path class="cls-31" d="M233,218.48a10.11,10.11,0,0,1,3.63,3.52,32.8,32.8,0,0,1-6.92.74,2,2,0,0,1-1.07-.21c-.58-.37-.6-1.19-.56-1.88.08-1.5-.06-2.26,1.59-2.63A5,5,0,0,1,233,218.48Z"/><path class="cls-31" d="M208.6,191.71c-.44-2-1.91-4.53-4.13-5.1h0c-2.34-.67-5.34-.44-7.08,1.26a9.5,9.5,0,0,0-2.34,4.11,12.46,12.46,0,0,0,.81,7.54l0,.12,0,0h0a6.28,6.28,0,0,0,4.49,3.75c3.1.47,5.88-2.14,7.21-5A10.6,10.6,0,0,0,208.6,191.71Z"/><ellipse class="cls-5" cx="206.11" cy="196.12" rx="0.85" ry="0.34" transform="translate(-65.59 280.52) rotate(-60.83)"/><path class="cls-31" d="M208.33,195.58c0,1.11,0,3.15,0,4.25l-2.27.51"/><path class="cls-5" d="M204,200.13a.42.42,0,0,0-.06.27,1.84,1.84,0,0,0,.49,1.15,1.68,1.68,0,0,0,.29.24"/><path class="cls-5" d="M206.27,193.85a1.36,1.36,0,0,1,.93.06,1.41,1.41,0,0,1,.68.64"/><path class="cls-9" d="M208.68,192.16c0-.15,0-.3-.08-.45-.44-2-1.91-4.53-4.13-5.1h0c-2.34-.67-5.34-.44-7.08,1.26a9.5,9.5,0,0,0-2.34,4.11,12.46,12.46,0,0,0,.81,7.54l0,.12,0,0h0a7.23,7.23,0,0,0,2.47,3,29.29,29.29,0,0,1,1.49-10.71,1.34,1.34,0,0,1,.35-.69,1.42,1.42,0,0,1,1-.24A26.31,26.31,0,0,1,208.68,192.16Z"/><path class="cls-31" d="M200,195.13a3.7,3.7,0,0,0-.44-1.69,1.52,1.52,0,0,0-.67-.7,1.17,1.17,0,0,0-1.24.28,2.27,2.27,0,0,0-.59,1.2,3.43,3.43,0,0,0,.19,2.05,2.58,2.58,0,0,0,1.48,1.4c.08,0,.21,0,.14-.09"/><path id="Garage_Laptop_2_Screen" data-name="Garage Laptop 2 Screen" class="cls-14" d="M238.54,220.9s-6-14.16,6.81-22.31Z"/><polygon class="cls-2" points="221.36 250.82 268.44 250.82 268.44 226.61 211.95 226.61 211.95 275.7 221.36 275.7 221.36 250.82"/><polygon class="cls-2" points="221.36 250.82 268.44 250.82 268.44 226.61 211.95 226.61 211.95 275.7 221.36 275.7 221.36 250.82"/><polygon class="cls-22" points="221.36 250.82 268.44 250.82 268.44 226.61 211.95 226.61 211.95 275.7 221.36 275.7 221.36 250.82"/><polygon class="cls-22" points="221.36 250.82 268.44 250.82 268.44 226.61 211.95 226.61 211.95 275.7 221.36 275.7 221.36 250.82"/><polygon id="Garage_Desk_2_Shadow" data-name="Garage Desk 2 Shadow" class="cls-9" points="242.21 250.82 268.44 250.82 268.44 226.61 218 226.61 242.21 250.82"/><polygon id="Garage_Shadow-3" data-name="Garage Shadow" class="cls-32" points="248.71 196.81 268.24 216.33 268.24 223.42 266.17 226.28 243.22 226.28 248.71 196.81"/><polygon id="Garage_Shadow-4" data-name="Garage Shadow" class="cls-9" points="243.9 275.7 268.44 275.7 268.44 250.82 221.36 250.82 243.9 275.7"/><g id="Garage_Shrub_Right" data-name="Garage Shrub Right"><path class="cls-2" d="M262.37,240.67a6.74,6.74,0,0,1-1.51-3.47,3.12,3.12,0,0,1,1.75-3.12,2.06,2.06,0,0,1,2.76,1.71,12.17,12.17,0,0,1,17.33-13.73,3.24,3.24,0,0,1,1.09-3.68c1.18-.71,3.1.25,2.87,1.61a11.72,11.72,0,0,1,22.64,1.8,16.25,16.25,0,0,1-.68,7.38c1.06-1,2.46-2.06,3.83-1.57a2.64,2.64,0,0,1,1.59,2.51,6.39,6.39,0,0,1-.9,3,19.76,19.76,0,0,1,6.58-1,6.73,6.73,0,0,1,5.54,3.22,7.84,7.84,0,0,1,.22,5.57,18,18,0,0,1-5.88,9.2c1.09-.91,3,.39,2.76,1.79a2.54,2.54,0,0,1-3.31,1.72c3.39-.59,6.86,1.83,8.07,5.05a11.35,11.35,0,0,1-1.42,9.85,22.21,22.21,0,0,1-7.59,6.85,44.19,44.19,0,0,1-26.77,6,18.49,18.49,0,0,1-5.7-1.31c-5.32-2.37-8.08-8.29-9.55-13.93a59.63,59.63,0,0,1-1.69-9.56,20.26,20.26,0,0,0-1.08-6C271.25,245.61,265.47,244.79,262.37,240.67Z"/><path class="cls-2" d="M250.62,271a8.13,8.13,0,0,1,5.12-5.27c-1.24.47-3,.71-3.51-.53a1.72,1.72,0,0,1,.72-1.9,5.12,5.12,0,0,1,2-.74c-3.25-.88-5-5.11-3.48-8.13a6.85,6.85,0,0,1,8.66-2.94,5.17,5.17,0,0,1-1.57-2.53c-.17-1,.48-2.19,1.49-2.19s1.52.85,2,1.62a4.86,4.86,0,0,1-.75-4.49,7.94,7.94,0,0,1,2.77-3.77,8.9,8.9,0,0,1,6.63-2,6.08,6.08,0,0,1,5.06,4.4,5,5,0,0,1,1.76-2.57,1.86,1.86,0,0,1,2.68.65c.34,1-.47,2-.4,3a18.34,18.34,0,0,1,5.6-2.21,5.59,5.59,0,0,1,6.74,7.32,18.2,18.2,0,0,1-2.69,5.42c1.4.15,3-1.3,4-.35a1.6,1.6,0,0,1-.18,2.22,4.67,4.67,0,0,1-2.26,1,7.24,7.24,0,0,1,3.33,13.17c1.14-.22,2.79-.06,2.83,1.09,0,1.45-2.4,1.31-3.3,2.44,1.46-.56,3,1.25,2.65,2.78s-1.69,2.6-3.08,3.31c-5.46,2.81-12,2.35-18.06,1.34-5.53-.92-12.1-3-17.54-1.09C252.72,281.88,249.24,275.62,250.62,271Z"/><path class="cls-27" d="M262.37,240.67a6.74,6.74,0,0,1-1.51-3.47,3.12,3.12,0,0,1,1.75-3.12,2.06,2.06,0,0,1,2.76,1.71,12.17,12.17,0,0,1,17.33-13.73,3.24,3.24,0,0,1,1.09-3.68c1.18-.71,3.1.25,2.87,1.61a11.72,11.72,0,0,1,22.64,1.8,16.25,16.25,0,0,1-.68,7.38c1.06-1,2.46-2.06,3.83-1.57a2.64,2.64,0,0,1,1.59,2.51,6.39,6.39,0,0,1-.9,3,19.76,19.76,0,0,1,6.58-1,6.73,6.73,0,0,1,5.54,3.22,7.84,7.84,0,0,1,.22,5.57,18,18,0,0,1-5.88,9.2c1.09-.91,3,.39,2.76,1.79a2.54,2.54,0,0,1-3.31,1.72c3.39-.59,6.86,1.83,8.07,5.05a11.35,11.35,0,0,1-1.42,9.85,22.21,22.21,0,0,1-7.59,6.85,44.19,44.19,0,0,1-26.77,6,18.49,18.49,0,0,1-5.7-1.31c-5.32-2.37-8.08-8.29-9.55-13.93a59.63,59.63,0,0,1-1.69-9.56,20.26,20.26,0,0,0-1.08-6C271.25,245.61,265.47,244.79,262.37,240.67Z"/><path class="cls-26" d="M250.62,271a8.13,8.13,0,0,1,5.12-5.27c-1.24.47-3,.71-3.51-.53a1.72,1.72,0,0,1,.72-1.9,5.12,5.12,0,0,1,2-.74c-3.25-.88-5-5.11-3.48-8.13a6.85,6.85,0,0,1,8.66-2.94,5.17,5.17,0,0,1-1.57-2.53c-.17-1,.48-2.19,1.49-2.19s1.52.85,2,1.62a4.86,4.86,0,0,1-.75-4.49,7.94,7.94,0,0,1,2.77-3.77,8.9,8.9,0,0,1,6.63-2,6.08,6.08,0,0,1,5.06,4.4,5,5,0,0,1,1.76-2.57,1.86,1.86,0,0,1,2.68.65c.34,1-.47,2-.4,3a18.34,18.34,0,0,1,5.6-2.21,5.59,5.59,0,0,1,6.74,7.32,18.2,18.2,0,0,1-2.69,5.42c1.4.15,3-1.3,4-.35a1.6,1.6,0,0,1-.18,2.22,4.67,4.67,0,0,1-2.26,1,7.24,7.24,0,0,1,3.33,13.17c1.14-.22,2.79-.06,2.83,1.09,0,1.45-2.4,1.31-3.3,2.44,1.46-.56,3,1.25,2.65,2.78s-1.69,2.6-3.08,3.31c-5.46,2.81-12,2.35-18.06,1.34-5.53-.92-12.1-3-17.54-1.09C252.72,281.88,249.24,275.62,250.62,271Z"/><path class="cls-9" d="M327.12,258.68a8.21,8.21,0,0,0-4.16-4.47,7.19,7.19,0,0,1,.16,7.5,8.94,8.94,0,0,1-.8,1.2c-7.93,10.68-22.67,11-27.11,10.87a1.59,1.59,0,0,0-1.3-.08c.9-1.13,3.34-1,3.3-2.44,0-1.15-1.69-1.31-2.83-1.09a1.33,1.33,0,0,0,.19-.14,3,3,0,0,0-1.48.59,8.24,8.24,0,0,0-1.62,2.64c-.51.91-1.76,2.06-2.51,1.35-.4-.38-.47-1-.71-1.49a5.88,5.88,0,0,1-11.54.87c-.35,1.47-1.29,4-2.7,3.46-.66-.26-.49-1.34-.73-2a5.23,5.23,0,0,1-9.29-2.34,12.51,12.51,0,0,1-4.71,6.08,7.64,7.64,0,0,1-3.86,1.13,5.24,5.24,0,0,0,2.46-.28c5.44-1.94,12,.17,17.53,1.09,4.73.79,9.74,1.23,14.31.07.54.08,1.08.14,1.62.2a44.19,44.19,0,0,0,26.77-6,22.21,22.21,0,0,0,7.59-6.85A11.35,11.35,0,0,0,327.12,258.68Z"/></g><path id="Garage_Laptop_2" data-name="Garage Laptop 2" class="cls-25" d="M240.53,226.28H217.67a2.69,2.69,0,0,1,0-5.38h20.87l6.81-22.31a2.69,2.69,0,0,1,5.15,1.57l-7.4,24.21A2.69,2.69,0,0,1,240.53,226.28Z"/><g id="Garage_Customer" data-name="Garage Customer"><circle class="cls-16" cx="240.65" cy="75.37" r="16.93"/><line class="cls-17" x1="240.65" y1="92.29" x2="240.65" y2="197.64"/><ellipse class="cls-33" cx="238.07" cy="77.54" rx="0.56" ry="1.39"/><ellipse class="cls-33" cx="244.92" cy="77.54" rx="0.56" ry="1.39"/><path class="cls-16" d="M241.39,78.45l1,1.87-1.1,1"/><path class="cls-16" d="M239.09,83.61a.84.84,0,0,0,.39.4,3.72,3.72,0,0,0,2.57.45,3.65,3.65,0,0,0,2.21-1.35"/><path class="cls-16" d="M248.77,74.18a2.29,2.29,0,0,0-1.07-.69c-2.75-1.08-5.89-1.67-8.62-.54a.74.74,0,0,1-.52.09.9.9,0,0,1-.31-.25,3.14,3.14,0,0,0-1.61-.76,8.89,8.89,0,0,0-5.89.8,26.15,26.15,0,0,1,4-5.53,6.07,6.07,0,0,0-2.79-.4,8.34,8.34,0,0,1,3.54-2.24,21,21,0,0,1,4.15-.86,5.31,5.31,0,0,1,2.51.09,5.78,5.78,0,0,0-1-1.9c.9.34,1.79.7,2.66,1.08a11.58,11.58,0,0,1,3.82,2.41,8.75,8.75,0,0,1,1.36,2,13.45,13.45,0,0,1,1.55,5.75c0,.58.24,2.36-.34,2.71C249.28,76.43,249.08,74.6,248.77,74.18Z"/><path class="cls-16" d="M233.27,72a15.92,15.92,0,0,0-.3,3.23.88.88,0,0,0,.08.46,1,1,0,0,0,.71.34l.55.08c.2,0,.45.05.56-.12s0-.34,0-.52a6.25,6.25,0,0,1,.72-3.58A8.86,8.86,0,0,0,233.27,72Z"/><path class="cls-16" d="M250.17,75.89c-.89.54-1.09-1.29-1.4-1.71a2.29,2.29,0,0,0-1.07-.69c-2.75-1.08-5.89-1.67-8.62-.54a.74.74,0,0,1-.52.09.9.9,0,0,1-.31-.25,3.14,3.14,0,0,0-1.61-.76,8.92,8.92,0,0,0-2.06-.18h0a8.3,8.3,0,0,1,1,0,6.25,6.25,0,0,0-.72,3.58c0,.18.12.37,0,.52s-.36.16-.56.12l-.55-.08a1,1,0,0,1-.71-.34.57.57,0,0,1,0-.14,16.77,16.77,0,0,0,.06,3.54,11.89,11.89,0,0,0,.42,2,5.94,5.94,0,0,0,.6,1.37,9.22,9.22,0,0,0,7.69,4.63,8.36,8.36,0,0,0,7.58-4.65,15.14,15.14,0,0,0,.95-6.43v-.28A.41.41,0,0,1,250.17,75.89Z"/><path class="cls-16" d="M233,75.83c-.29-.14-.64-.09-1.06.3a2.86,2.86,0,0,0-.79,1,2.54,2.54,0,0,0-.12,1,2.49,2.49,0,0,0,.7,1.86,2.45,2.45,0,0,0,1.6.43,9.07,9.07,0,0,1-.24-1.3A20.8,20.8,0,0,1,233,75.83Z"/><path class="cls-16" d="M252,76.29a1.65,1.65,0,0,0-.65-.35,1.67,1.67,0,0,0-1,.1,20,20,0,0,1-.36,4.59,2.78,2.78,0,0,0,1.9-.9,3,3,0,0,0,.8-1.29A2.15,2.15,0,0,0,252,76.29Z"/><path class="cls-16" d="M248.06,89.81c0,.25,0,.49.06.73a16.48,16.48,0,0,0,3-1.87,7.2,7.2,0,0,0-1.87-.73,17.17,17.17,0,0,0-1.87-.37,4.06,4.06,0,0,1,.39.72A6,6,0,0,1,248.06,89.81Z"/><path class="cls-16" d="M235.31,88.27a1.51,1.51,0,0,1,.11-.22,9.27,9.27,0,0,0-1.2.36,13,13,0,0,0-2.5,1.33A16.4,16.4,0,0,0,235,91.3c0-.74.11-1.49.19-2.24A3,3,0,0,1,235.31,88.27Z"/><path class="cls-16" d="M237.41,86.67a1.67,1.67,0,0,1,.07-.35,3.79,3.79,0,0,0-1.58,1.13,2.39,2.39,0,0,0-.59.82,3,3,0,0,0-.16.79c-.08.75-.16,1.5-.19,2.25a16.38,16.38,0,0,0,3.78.87A2.5,2.5,0,0,0,239,92a7.88,7.88,0,0,1-1.22-2.42A7.48,7.48,0,0,1,237.41,86.67Z"/><path class="cls-16" d="M246.05,86.53a9.31,9.31,0,0,1-1.54,5.32,17,17,0,0,0,3.61-1.29c0-.25,0-.5-.06-.75a6,6,0,0,0-.3-1.52C247.55,87.73,246.79,86.51,246.05,86.53Z"/><path class="cls-16" d="M246,86a8.3,8.3,0,0,1-4.24,1.11A8.78,8.78,0,0,1,237.66,86a1.26,1.26,0,0,0-.25.7,7.48,7.48,0,0,0,.34,2.86,8.16,8.16,0,0,0,1.43,2.7q.73.06,1.47.06a17,17,0,0,0,3.87-.44,9.35,9.35,0,0,0,1.53-5.67A1.25,1.25,0,0,0,246,86Z"/></g></g></g></svg>