<svg xmlns="http://www.w3.org/2000/svg" xmlns:xlink="http://www.w3.org/1999/xlink" viewBox="0 0 369.39 460.38"><defs><style>.cls-1{fill:#005b4c;opacity:0.07;}.cls-2,.cls-35,.cls-37,.cls-38,.cls-5{fill:none;}.cls-10,.cls-11,.cls-12,.cls-13,.cls-14,.cls-15,.cls-17,.cls-18,.cls-19,.cls-2,.cls-20,.cls-21,.cls-22,.cls-23,.cls-24,.cls-25,.cls-26,.cls-27,.cls-3,.cls-32,.cls-33,.cls-34,.cls-39,.cls-4,.cls-40,.cls-41,.cls-42,.cls-43,.cls-44,.cls-45,.cls-46,.cls-47,.cls-48,.cls-5,.cls-50,.cls-6{stroke:#33475c;}.cls-10,.cls-11,.cls-12,.cls-13,.cls-14,.cls-15,.cls-17,.cls-18,.cls-19,.cls-2,.cls-20,.cls-21,.cls-22,.cls-23,.cls-24,.cls-25,.cls-26,.cls-27,.cls-3,.cls-32,.cls-33,.cls-34,.cls-35,.cls-36,.cls-37,.cls-38,.cls-39,.cls-4,.cls-40,.cls-41,.cls-42,.cls-43,.cls-44,.cls-45,.cls-46,.cls-47,.cls-48,.cls-5,.cls-50,.cls-6{stroke-linecap:round;stroke-linejoin:round;}.cls-2{stroke-width:5px;}.cls-3{fill:#ffab7d;}.cls-29,.cls-36,.cls-4,.cls-49,.cls-50{fill:#fff;}.cls-6{fill:#e86e4b;}.cls-7{fill:#fec7aa;}.cls-8{fill:#f38c64;}.cls-21,.cls-9{fill:#ff7a53;}.cls-49,.cls-9{opacity:0.5;}.cls-10,.cls-13{fill:#db4b50;}.cls-10,.cls-50{stroke-width:3px;}.cls-11{fill:#f77d81;}.cls-12{fill:#faa8ac;}.cls-14{fill:#fff3ee;}.cls-15,.cls-16{fill:#ffc7aa;}.cls-17{fill:#7cd1df;}.cls-18{fill:#fbe1b2;}.cls-19{fill:#f9d28c;}.cls-20{fill:#f55257;}.cls-22{fill:#ff9b7e;}.cls-23{fill:#506e91;}.cls-24{fill:#c1866c;}.cls-25,.cls-47,.cls-48{fill:#33475c;}.cls-26{fill:#415a77;}.cls-27{fill:#fdc;}.cls-28{opacity:0.75;}.cls-30,.cls-47{opacity:0.25;}.cls-31{fill:url(#linear-gradient);}.cls-32{fill:#ffe3dc;}.cls-33{fill:#6976d4;}.cls-34{fill:#c78244;}.cls-35,.cls-36,.cls-37,.cls-38{stroke:#fff;}.cls-37{stroke-dasharray:5.36 5.36;}.cls-38{stroke-dasharray:4.94 4.94;}.cls-39{fill:#7b97b7;}.cls-40{fill:#cbd6e3;}.cls-41{fill:#00a48d;}.cls-42{fill:#f7d3af;}.cls-43{fill:#0091b2;}.cls-44{fill:#ff8f52;}.cls-45{fill:#7bded2;}.cls-46{fill:#00bea5;}.cls-48{opacity:0.14;}</style><linearGradient id="linear-gradient" x1="44.26" y1="393.37" x2="44.32" y2="393.37" gradientUnits="userSpaceOnUse"><stop offset="0.05" stop-color="#e4f8f6"/><stop offset="0.14" stop-color="#afebe4"/><stop offset="0.27" stop-color="#7bded2"/><stop offset="0.42" stop-color="#40cebb"/><stop offset="0.65" stop-color="#00bea5"/><stop offset="0.89" stop-color="#00a48d"/></linearGradient></defs><title>Asset 5</title><g id="Layer_2" data-name="Layer 2"><g id="Artwork"><path id="Startup_Shadow" data-name="Startup Shadow" class="cls-1" d="M325.82,423.07c4.39.81,8.47,3.28,12.93,3.21,5-.08,9.55-3.5,12.25-7.74s3.89-9.26,4.94-14.18c2.08-9.74,3.79-19.71,2.79-29.62a48.7,48.7,0,0,0-1.26-7.17H100.85A125.87,125.87,0,0,0,93,388.28c-1.3,4.69-2.34,9.58-1.6,14.38S95,412.2,99.56,414c4.92,1.93,10.4.06,15.54-1.18s11.42-1.47,14.8,2.6c3.95,4.73,1.4,11.75.89,17.89-1,11.55,7.23,23.21,18.43,26.2,12.62,3.36,25.54-3.43,36.5-10.52s22.71-15,35.74-14.21c5.31.33,10.86,2.46,13.72,7,1.75,2.75,2.34,6.12,4.15,8.83a15.53,15.53,0,0,0,7,5.41c10.19,4.3,22.16.88,31.5-5s17-14.15,26-20.67C310.2,425.55,318,421.63,325.82,423.07Z"/><rect class="cls-2" x="108.28" y="160.79" width="221.76" height="100.53"/><polygon class="cls-2" points="273.85 170.2 300.15 170.2 302.5 160.79 271.49 160.79 273.85 170.2"/><path class="cls-2" d="M170.14,250.5V210.55a18.83,18.83,0,1,0-37.66,0V250.5Z"/><rect class="cls-2" x="108.28" y="162.13" width="18.22" height="88.36"/><rect class="cls-2" x="126.5" y="160.79" width="2.87" height="89.71"/><rect class="cls-2" x="173.25" y="160.79" width="2.87" height="89.71"/><rect class="cls-2" x="194.34" y="160.79" width="2.87" height="89.71"/><rect class="cls-2" x="241.09" y="160.79" width="2.87" height="89.71"/><rect class="cls-2" x="262.19" y="160.79" width="2.87" height="89.71"/><rect class="cls-2" x="308.94" y="160.79" width="2.87" height="89.71"/><rect class="cls-2" x="176.12" y="162.13" width="18.22" height="88.36"/><rect class="cls-2" x="243.97" y="162.13" width="18.22" height="88.36"/><rect class="cls-2" x="311.81" y="162.13" width="18.22" height="88.36"/><rect class="cls-2" x="109.03" y="167.33" width="10.45" height="4.79"/><rect class="cls-2" x="109.03" y="179.62" width="10.45" height="4.79"/><rect class="cls-2" x="114.26" y="173.48" width="10.45" height="4.79"/><rect class="cls-2" x="177.39" y="229.86" width="10.45" height="4.79"/><rect class="cls-2" x="177.39" y="242.15" width="10.45" height="4.79"/><rect class="cls-2" x="182.62" y="236.01" width="10.45" height="4.79"/><rect class="cls-2" x="313.08" y="223.11" width="10.45" height="4.79"/><rect class="cls-2" x="313.08" y="235.39" width="10.45" height="4.79"/><rect class="cls-2" x="318.31" y="229.25" width="10.45" height="4.79"/><rect class="cls-2" x="245.24" y="162.01" width="10.45" height="4.79"/><rect class="cls-2" x="245.24" y="174.29" width="10.45" height="4.79"/><rect class="cls-2" x="250.46" y="168.15" width="10.45" height="4.79"/><rect class="cls-2" x="182.62" y="175.85" width="10.45" height="4.79"/><rect class="cls-2" x="182.62" y="188.13" width="10.45" height="4.79"/><rect class="cls-2" x="177.39" y="181.99" width="10.45" height="4.79"/><rect class="cls-2" x="250.46" y="217.74" width="10.45" height="4.79"/><rect class="cls-2" x="250.46" y="230.03" width="10.45" height="4.79"/><rect class="cls-2" x="245.24" y="223.88" width="10.45" height="4.79"/><rect class="cls-2" x="115.06" y="218.68" width="10.45" height="4.79"/><rect class="cls-2" x="115.06" y="230.96" width="10.45" height="4.79"/><rect class="cls-2" x="109.83" y="224.82" width="10.45" height="4.79"/><rect class="cls-2" x="318.7" y="173.48" width="10.45" height="4.79"/><rect class="cls-2" x="318.7" y="185.76" width="10.45" height="4.79"/><rect class="cls-2" x="313.47" y="179.62" width="10.45" height="4.79"/><rect class="cls-3" x="108.28" y="160.79" width="221.76" height="100.53"/><polygon class="cls-4" points="273.85 170.2 300.15 170.2 302.5 160.79 271.49 160.79 273.85 170.2"/><path class="cls-4" d="M170.14,250.5V210.55a18.83,18.83,0,1,0-37.66,0V250.5Z"/><rect class="cls-5" x="108.28" y="162.13" width="18.22" height="88.36"/><rect class="cls-6" x="126.5" y="160.79" width="2.87" height="89.71"/><rect class="cls-6" x="173.25" y="160.79" width="2.87" height="89.71"/><rect class="cls-6" x="194.34" y="160.79" width="2.87" height="89.71"/><rect class="cls-6" x="241.09" y="160.79" width="2.87" height="89.71"/><rect class="cls-6" x="262.19" y="160.79" width="2.87" height="89.71"/><rect class="cls-6" x="308.94" y="160.79" width="2.87" height="89.71"/><rect class="cls-5" x="176.12" y="162.13" width="18.22" height="88.36"/><rect class="cls-5" x="243.97" y="162.13" width="18.22" height="88.36"/><rect class="cls-5" x="311.81" y="162.13" width="18.22" height="88.36"/><rect class="cls-7" x="109.03" y="167.33" width="10.45" height="4.79"/><rect class="cls-8" x="109.03" y="179.62" width="10.45" height="4.79"/><rect class="cls-9" x="114.26" y="173.48" width="10.45" height="4.79"/><rect class="cls-7" x="177.39" y="229.86" width="10.45" height="4.79"/><rect class="cls-8" x="177.39" y="242.15" width="10.45" height="4.79"/><rect class="cls-9" x="182.62" y="236.01" width="10.45" height="4.79"/><rect class="cls-7" x="313.08" y="223.11" width="10.45" height="4.79"/><rect class="cls-8" x="313.08" y="235.39" width="10.45" height="4.79"/><rect class="cls-9" x="318.31" y="229.25" width="10.45" height="4.79"/><rect class="cls-7" x="245.24" y="162.01" width="10.45" height="4.79"/><rect class="cls-8" x="245.24" y="174.29" width="10.45" height="4.79"/><rect class="cls-9" x="250.46" y="168.15" width="10.45" height="4.79"/><rect class="cls-7" x="182.62" y="175.85" width="10.45" height="4.79"/><rect class="cls-8" x="182.62" y="188.13" width="10.45" height="4.79"/><rect class="cls-9" x="177.39" y="181.99" width="10.45" height="4.79"/><rect class="cls-7" x="250.46" y="217.74" width="10.45" height="4.79"/><rect class="cls-8" x="250.46" y="230.03" width="10.45" height="4.79"/><rect class="cls-9" x="245.24" y="223.88" width="10.45" height="4.79"/><rect class="cls-7" x="115.06" y="218.68" width="10.45" height="4.79"/><rect class="cls-8" x="115.06" y="230.96" width="10.45" height="4.79"/><rect class="cls-9" x="109.83" y="224.82" width="10.45" height="4.79"/><rect class="cls-7" x="318.7" y="173.48" width="10.45" height="4.79"/><rect class="cls-8" x="318.7" y="185.76" width="10.45" height="4.79"/><rect class="cls-9" x="313.47" y="179.62" width="10.45" height="4.79"/><polygon id="Startup_Roof_Support" data-name="Startup Roof Support" class="cls-10" points="100.5 120.44 108.28 145.99 330.03 145.99 337.43 120.44 100.5 120.44"/><path class="cls-2" d="M151,132.31h6.44a23.94,23.94,0,0,1,5.33-11.87h-17.1A23.86,23.86,0,0,1,151,132.31Z"/><path class="cls-2" d="M152.15,127.9h4a15,15,0,0,1,3.34-7.46H148.8A15,15,0,0,1,152.15,127.9Z"/><path class="cls-11" d="M151,132.31h6.44a23.94,23.94,0,0,1,5.33-11.87h-17.1A23.86,23.86,0,0,1,151,132.31Z"/><path class="cls-12" d="M152.15,127.9h4a15,15,0,0,1,3.34-7.46H148.8A15,15,0,0,1,152.15,127.9Z"/><path class="cls-2" d="M216.53,132.31H223a24,24,0,0,1,5.33-11.87H211.2A23.94,23.94,0,0,1,216.53,132.31Z"/><path class="cls-2" d="M217.72,127.9h4.05a15,15,0,0,1,3.35-7.46H214.37A15,15,0,0,1,217.72,127.9Z"/><path class="cls-11" d="M216.53,132.31H223a24,24,0,0,1,5.33-11.87H211.2A23.94,23.94,0,0,1,216.53,132.31Z"/><path class="cls-12" d="M217.72,127.9h4.05a15,15,0,0,1,3.35-7.46H214.37A15,15,0,0,1,217.72,127.9Z"/><path class="cls-2" d="M285.51,132.31h6.43a23.94,23.94,0,0,1,5.33-11.87H280.18A24,24,0,0,1,285.51,132.31Z"/><path class="cls-2" d="M286.7,127.9h4.05a14.88,14.88,0,0,1,3.35-7.46H283.35A15,15,0,0,1,286.7,127.9Z"/><path class="cls-11" d="M285.51,132.31h6.43a23.94,23.94,0,0,1,5.33-11.87H280.18A24,24,0,0,1,285.51,132.31Z"/><path class="cls-12" d="M286.7,127.9h4.05a14.88,14.88,0,0,1,3.35-7.46H283.35A15,15,0,0,1,286.7,127.9Z"/><rect class="cls-2" x="108.28" y="120.44" width="18.22" height="25.55"/><path class="cls-2" d="M113.68,135.14a2,2,0,0,1-2-2v-7a2,2,0,1,1,4,0v7A2,2,0,0,1,113.68,135.14Z"/><path class="cls-2" d="M121.1,135.14a2,2,0,0,1-2-2v-7a2,2,0,0,1,4,0v7A2,2,0,0,1,121.1,135.14Z"/><rect class="cls-2" x="108.28" y="138.85" width="18.22" height="7.14"/><rect class="cls-2" x="108.28" y="141.52" width="18.22" height="4.48"/><rect class="cls-11" x="108.28" y="120.44" width="18.22" height="25.55"/><path class="cls-13" d="M113.68,135.14a2,2,0,0,1-2-2v-7a2,2,0,1,1,4,0v7A2,2,0,0,1,113.68,135.14Z"/><path class="cls-13" d="M121.1,135.14a2,2,0,0,1-2-2v-7a2,2,0,0,1,4,0v7A2,2,0,0,1,121.1,135.14Z"/><rect class="cls-13" x="108.28" y="138.85" width="18.22" height="7.14"/><rect class="cls-11" x="108.28" y="141.52" width="18.22" height="4.48"/><rect class="cls-2" x="176.12" y="120.44" width="18.22" height="25.55"/><path class="cls-2" d="M181.48,135.14a2,2,0,0,1-2-2v-7a2,2,0,0,1,4,0v7A2,2,0,0,1,181.48,135.14Z"/><path class="cls-2" d="M188.9,135.14a2,2,0,0,1-2-2v-7a2,2,0,1,1,4,0v7A2,2,0,0,1,188.9,135.14Z"/><rect class="cls-2" x="176.12" y="138.85" width="18.22" height="7.14"/><rect class="cls-2" x="176.12" y="141.52" width="18.22" height="4.48"/><rect class="cls-11" x="176.12" y="120.44" width="18.22" height="25.55"/><path class="cls-13" d="M181.48,135.14a2,2,0,0,1-2-2v-7a2,2,0,0,1,4,0v7A2,2,0,0,1,181.48,135.14Z"/><path class="cls-13" d="M188.9,135.14a2,2,0,0,1-2-2v-7a2,2,0,1,1,4,0v7A2,2,0,0,1,188.9,135.14Z"/><rect class="cls-13" x="176.12" y="138.85" width="18.22" height="7.14"/><rect class="cls-11" x="176.12" y="141.52" width="18.22" height="4.48"/><rect class="cls-2" x="243.97" y="120.44" width="18.22" height="25.55"/><path class="cls-2" d="M249.33,135.19a2,2,0,0,1-2-2v-6.95a2,2,0,1,1,4,0v6.95A2,2,0,0,1,249.33,135.19Z"/><path class="cls-2" d="M256.75,135.19a2,2,0,0,1-2-2v-6.95a2,2,0,1,1,4,0v6.95A2,2,0,0,1,256.75,135.19Z"/><rect class="cls-2" x="243.97" y="138.85" width="18.22" height="7.14"/><rect class="cls-2" x="243.97" y="141.52" width="18.22" height="4.48"/><rect class="cls-11" x="243.97" y="120.44" width="18.22" height="25.55"/><path class="cls-13" d="M249.33,135.19a2,2,0,0,1-2-2v-6.95a2,2,0,1,1,4,0v6.95A2,2,0,0,1,249.33,135.19Z"/><path class="cls-13" d="M256.75,135.19a2,2,0,0,1-2-2v-6.95a2,2,0,1,1,4,0v6.95A2,2,0,0,1,256.75,135.19Z"/><rect class="cls-13" x="243.97" y="138.85" width="18.22" height="7.14"/><rect class="cls-11" x="243.97" y="141.52" width="18.22" height="4.48"/><rect class="cls-2" x="311.81" y="120.44" width="18.22" height="25.55"/><path class="cls-2" d="M317.17,135.24a2,2,0,0,1-2-2v-7a2,2,0,0,1,4,0v7A2,2,0,0,1,317.17,135.24Z"/><path class="cls-2" d="M324.59,135.24a2,2,0,0,1-2-2v-7a2,2,0,0,1,4,0v7A2,2,0,0,1,324.59,135.24Z"/><rect class="cls-2" x="311.81" y="138.85" width="18.22" height="7.14"/><rect class="cls-2" x="311.81" y="141.52" width="18.22" height="4.48"/><rect class="cls-11" x="311.81" y="120.44" width="18.22" height="25.55"/><path class="cls-13" d="M317.17,135.24a2,2,0,0,1-2-2v-7a2,2,0,0,1,4,0v7A2,2,0,0,1,317.17,135.24Z"/><path class="cls-13" d="M324.59,135.24a2,2,0,0,1-2-2v-7a2,2,0,0,1,4,0v7A2,2,0,0,1,324.59,135.24Z"/><rect class="cls-13" x="311.81" y="138.85" width="18.22" height="7.14"/><rect class="cls-11" x="311.81" y="141.52" width="18.22" height="4.48"/><rect class="cls-5" x="108.28" y="250.5" width="221.76" height="13.51"/><polygon class="cls-2" points="138.02 162.13 151.31 215.31 164.6 162.13 138.02 162.13"/><polygon class="cls-2" points="138.16 171.55 164.46 171.55 166.82 162.13 135.81 162.13 138.16 171.55"/><polygon class="cls-2" points="136.41 164.57 166.21 164.57 166.82 162.13 135.81 162.13 136.41 164.57"/><polygon class="cls-2" points="137.55 169.11 138.16 171.55 164.46 171.55 165.07 169.11 137.55 169.11"/><polygon class="cls-14" points="138.02 162.13 151.31 215.31 164.6 162.13 138.02 162.13"/><polygon class="cls-15" points="138.16 171.55 164.46 171.55 166.82 162.13 135.81 162.13 138.16 171.55"/><polygon class="cls-14" points="136.41 164.57 166.21 164.57 166.82 162.13 135.81 162.13 136.41 164.57"/><polygon class="cls-14" points="137.55 169.11 138.16 171.55 164.46 171.55 165.07 169.11 137.55 169.11"/><polygon class="cls-2" points="205.87 162.13 219.16 215.31 232.44 162.13 205.87 162.13"/><polygon class="cls-2" points="206 171.55 232.31 171.55 234.66 162.13 203.65 162.13 206 171.55"/><polygon class="cls-2" points="204.26 164.57 234.05 164.57 234.66 162.13 203.65 162.13 204.26 164.57"/><polygon class="cls-2" points="205.39 169.11 206 171.55 232.31 171.55 232.92 169.11 205.39 169.11"/><polygon class="cls-14" points="205.87 162.13 219.16 215.31 232.44 162.13 205.87 162.13"/><polygon class="cls-15" points="206 171.55 232.31 171.55 234.66 162.13 203.65 162.13 206 171.55"/><polygon class="cls-14" points="204.26 164.57 234.05 164.57 234.66 162.13 203.65 162.13 204.26 164.57"/><polygon class="cls-14" points="205.39 169.11 206 171.55 232.31 171.55 232.92 169.11 205.39 169.11"/><polygon class="cls-2" points="273.71 162.13 287 215.31 300.29 162.13 273.71 162.13"/><polygon class="cls-2" points="273.85 171.55 300.15 171.55 302.5 162.13 271.49 162.13 273.85 171.55"/><polygon class="cls-2" points="272.1 164.57 301.89 164.57 302.5 162.13 271.49 162.13 272.1 164.57"/><polygon class="cls-2" points="273.24 169.11 273.85 171.55 300.15 171.55 300.76 169.11 273.24 169.11"/><polygon class="cls-14" points="273.71 162.13 287 215.31 300.29 162.13 273.71 162.13"/><polygon class="cls-15" points="273.85 171.55 300.15 171.55 302.5 162.13 271.49 162.13 273.85 171.55"/><polygon class="cls-14" points="272.1 164.57 301.89 164.57 302.5 162.13 271.49 162.13 272.1 164.57"/><polygon class="cls-14" points="273.24 169.11 273.85 171.55 300.15 171.55 300.76 169.11 273.24 169.11"/><path class="cls-2" d="M330,200.69H316.31a30.92,30.92,0,0,0-58.62,0h-9.22a30.93,30.93,0,0,0-58.63,0h-9.22a30.92,30.92,0,0,0-58.62,0H108.28a6.05,6.05,0,1,0,0,12.1h24.2v-2.24a18.83,18.83,0,1,1,37.66,0v2.24h30.19v-2.24a18.83,18.83,0,1,1,37.65,0v2.24h30.19v-2.24a18.83,18.83,0,1,1,37.66,0v2.24H330a6.05,6.05,0,1,0,0-12.1Z"/><path class="cls-2" d="M124.41,202.71l.77-2.29a27.61,27.61,0,0,1,18.64-17.75l.66,2.69S132.7,186.44,124.41,202.71Z"/><path class="cls-2" d="M158.14,185.36l.66-2.69a27.61,27.61,0,0,1,18.64,17.75l.77,2.29C169.92,186.44,158.14,185.36,158.14,185.36Z"/><path class="cls-2" d="M260.1,202.71l.77-2.29a27.61,27.61,0,0,1,18.64-17.75l.66,2.69S268.39,186.44,260.1,202.71Z"/><path class="cls-2" d="M293.83,185.36l.66-2.69a27.61,27.61,0,0,1,18.64,17.75l.77,2.29C305.61,186.44,293.83,185.36,293.83,185.36Z"/><path class="cls-2" d="M225.24,188.42l1.4-5.75a27.57,27.57,0,0,1,18.64,17.75l.77,2.29C240,190.74,232,187,228.18,185.85Z"/><path class="cls-2" d="M213.07,188.42l-1.4-5.75A27.59,27.59,0,0,0,193,200.42l-.77,2.29c6.09-12,14.07-15.72,17.87-16.86Z"/><path class="cls-2" d="M170.1,209.33c0,.41,0,.81,0,1.22v2.24h30.19v-2.24c0-.41,0-.81,0-1.22"/><path class="cls-2" d="M237.94,209.33c0,.41,0,.81,0,1.22v2.24h30.19v-2.24c0-.41,0-.81,0-1.22"/><path class="cls-2" d="M305.79,209.33c0,.41,0,.81,0,1.22v2.24H330a6,6,0,0,0,5.47-3.46"/><path class="cls-2" d="M102.81,209.33a6,6,0,0,0,5.47,3.46h24.2v-2.24c0-.41,0-.81.05-1.22"/><path class="cls-14" d="M330,200.69H316.31a30.92,30.92,0,0,0-58.62,0h-9.22a30.93,30.93,0,0,0-58.63,0h-9.22a30.92,30.92,0,0,0-58.62,0H108.28a6.05,6.05,0,1,0,0,12.1h24.2v-2.24a18.83,18.83,0,1,1,37.66,0v2.24h30.19v-2.24a18.83,18.83,0,1,1,37.65,0v2.24h30.19v-2.24a18.83,18.83,0,1,1,37.66,0v2.24H330a6.05,6.05,0,1,0,0-12.1Z"/><path class="cls-16" d="M124.41,202.71l.77-2.29a27.61,27.61,0,0,1,18.64-17.75l.66,2.69S132.7,186.44,124.41,202.71Z"/><path class="cls-16" d="M158.14,185.36l.66-2.69a27.61,27.61,0,0,1,18.64,17.75l.77,2.29C169.92,186.44,158.14,185.36,158.14,185.36Z"/><path class="cls-16" d="M260.1,202.71l.77-2.29a27.61,27.61,0,0,1,18.64-17.75l.66,2.69S268.39,186.44,260.1,202.71Z"/><path class="cls-16" d="M293.83,185.36l.66-2.69a27.61,27.61,0,0,1,18.64,17.75l.77,2.29C305.61,186.44,293.83,185.36,293.83,185.36Z"/><path class="cls-16" d="M225.24,188.42l1.4-5.75a27.57,27.57,0,0,1,18.64,17.75l.77,2.29C240,190.74,232,187,228.18,185.85Z"/><path class="cls-16" d="M213.07,188.42l-1.4-5.75A27.59,27.59,0,0,0,193,200.42l-.77,2.29c6.09-12,14.07-15.72,17.87-16.86Z"/><path class="cls-15" d="M170.1,209.33c0,.41,0,.81,0,1.22v2.24h30.19v-2.24c0-.41,0-.81,0-1.22"/><path class="cls-15" d="M237.94,209.33c0,.41,0,.81,0,1.22v2.24h30.19v-2.24c0-.41,0-.81,0-1.22"/><path class="cls-15" d="M305.79,209.33c0,.41,0,.81,0,1.22v2.24H330a6,6,0,0,0,5.47-3.46"/><path class="cls-15" d="M102.81,209.33a6,6,0,0,0,5.47,3.46h24.2v-2.24c0-.41,0-.81.05-1.22"/><rect class="cls-2" x="108.28" y="264.01" width="221.76" height="103.22"/><rect class="cls-2" x="108.28" y="264.01" width="56.12" height="103.22"/><rect class="cls-2" x="164.4" y="264.01" width="56.12" height="103.22"/><rect class="cls-2" x="276.65" y="264.01" width="53.39" height="103.22"/><rect class="cls-2" x="108.28" y="264.01" width="221.76" height="9.58"/><rect class="cls-2" x="220.52" y="264.01" width="56.12" height="103.22"/><path class="cls-2" d="M330,266.7H108.28a2.69,2.69,0,0,1,0-5.38H330a2.69,2.69,0,1,1,0,5.38Z"/><rect class="cls-17" x="108.28" y="264.01" width="221.76" height="103.22"/><rect class="cls-5" x="108.28" y="264.01" width="56.12" height="103.22"/><rect class="cls-5" x="164.4" y="264.01" width="56.12" height="103.22"/><rect class="cls-5" x="276.65" y="264.01" width="53.39" height="103.22"/><rect class="cls-18" x="108.28" y="264.01" width="221.76" height="9.58"/><rect class="cls-5" x="220.52" y="264.01" width="56.12" height="103.22"/><path class="cls-19" d="M330,266.7H108.28a2.69,2.69,0,0,1,0-5.38H330a2.69,2.69,0,1,1,0,5.38Z"/><rect class="cls-2" x="96.94" y="105.65" width="242.43" height="4.93"/><rect class="cls-2" x="96.94" y="115.51" width="242.43" height="4.93"/><rect class="cls-2" x="99.63" y="110.58" width="237.05" height="4.93"/><rect class="cls-2" x="96.94" y="115.51" width="242.43" height="4.93"/><rect class="cls-20" x="96.94" y="105.65" width="242.43" height="4.93"/><rect class="cls-4" x="96.94" y="115.51" width="242.43" height="4.93"/><rect class="cls-13" x="99.63" y="110.58" width="237.05" height="4.93"/><rect class="cls-20" x="96.94" y="115.51" width="242.43" height="4.93"/><rect class="cls-2" x="107.7" y="150.93" width="223.6" height="4.93"/><rect class="cls-2" x="105.01" y="145.99" width="228.98" height="4.93"/><rect class="cls-2" x="105.01" y="155.86" width="228.98" height="4.93"/><rect class="cls-21" x="107.7" y="150.93" width="223.6" height="4.93"/><rect class="cls-6" x="105.01" y="145.99" width="228.98" height="4.93"/><rect class="cls-22" x="105.01" y="155.86" width="228.98" height="4.93"/><path class="cls-2" d="M305.83,250.5V210.55a18.83,18.83,0,1,0-37.66,0V250.5Z"/><path class="cls-2" d="M287,195.76a14.8,14.8,0,0,1,14.79,14.79v35.91H272.21V210.55A14.8,14.8,0,0,1,287,195.76"/><path class="cls-23" d="M305.83,250.5V210.55a18.83,18.83,0,1,0-37.66,0V250.5Z"/><path class="cls-18" d="M287,195.76a14.8,14.8,0,0,1,14.79,14.79v35.91H272.21V210.55A14.8,14.8,0,0,1,287,195.76"/><path class="cls-2" d="M299.75,229.6a1.9,1.9,0,0,0-.38.83,1.51,1.51,0,0,0,.26.78A32.54,32.54,0,0,1,303.16,242a3.31,3.31,0,0,1-.14,1.95,2.31,2.31,0,0,1-2.16,1.1,6.33,6.33,0,0,1-2.42-.72,58.11,58.11,0,0,1-7.24-4,1.64,1.64,0,0,1-.51-.47,1.54,1.54,0,0,1-.12-.88c.09-1.59,1.46-2.57,1.56-4.15a25.39,25.39,0,0,1,4.13,2.32l-1-3.76a10.12,10.12,0,0,0-1.3-3.25,9.86,9.86,0,0,1-1-1.43,3,3,0,0,1,1.44-3.57C297.42,223.45,301.91,226,299.75,229.6Z"/><path class="cls-2" d="M293.2,217.53a1.54,1.54,0,0,0-.62-.49,1.38,1.38,0,0,0-.87.09,9.48,9.48,0,0,0-3.41,2.07,1.53,1.53,0,0,0-.58,1,1.59,1.59,0,0,0,.41.88,48.28,48.28,0,0,0,7.2,7.58.66.66,0,0,0,.38.21.76.76,0,0,0,.53-.21c.82-.61,2.76-1.53,3.22-2.43.59-1.16-.22-1.66-1-2.62C296.73,221.59,295.07,219.41,293.2,217.53Z"/><path class="cls-2" d="M276.22,246q.12-5.74.65-11.47a2,2,0,0,1,.19-.76,1.83,1.83,0,0,1,1.45-.64c2.12-.23,4.53-.83,6.65-.54a36,36,0,0,1,6.6,2,2.16,2.16,0,0,1,1,.56,2.19,2.19,0,0,1,.38,1.31,75.08,75.08,0,0,1-.07,10H276.22Z"/><path class="cls-2" d="M286.87,233.84a5.37,5.37,0,0,1-.26,1.65,2.83,2.83,0,0,1-4.77.87,4.91,4.91,0,0,1-1-2.35,16.68,16.68,0,0,1,0-6.1.36.36,0,0,1,.08-.2c.09-.1.25-.08.38-.05,1.27.27,4.22.49,5.15,1.46S286.93,232.54,286.87,233.84Z"/><path class="cls-2" d="M295.14,221a8.79,8.79,0,0,1-.65,6.34,7.91,7.91,0,0,1-6.45,3.7,12.58,12.58,0,0,1-7.31-2.19,5.05,5.05,0,0,1-1.91-1.9,2.09,2.09,0,0,1,.39-2.51,3.21,3.21,0,0,1,2.66-.24c.38-2.23-.55-4.87.93-6.58a5.26,5.26,0,0,1,2.2-1.35,29.38,29.38,0,0,1,6.67-1.74C293.37,214.32,294.84,219.73,295.14,221Z"/><path class="cls-2" d="M272,215.72a8.54,8.54,0,0,1,3-5.9,5,5,0,0,1,6.24-.07,7.38,7.38,0,0,1,6.9-1.19,11.4,11.4,0,0,1,5.67,4.42,8.59,8.59,0,0,1,1.66,4,3.74,3.74,0,0,1-.61,2.83c-.59-2-1.8-5.46-3.16-5.28a29.38,29.38,0,0,0-6.67,1.74,5.26,5.26,0,0,0-2.2,1.35c-1.48,1.71-.55,4.35-.93,6.58a3.21,3.21,0,0,0-2.66.24,2,2,0,0,0-.54,2.09l-.26-.05a8.47,8.47,0,0,1-5.2-4.16A11.15,11.15,0,0,1,272,215.72Z"/><path class="cls-2" d="M276.6,233.5a5.25,5.25,0,0,1,.77,0,1,1,0,0,0-.31.31,2,2,0,0,0-.19.76q-.53,5.73-.65,11.47v.45h-3.8V235.64a11.51,11.51,0,0,1,1.28-.92A7.34,7.34,0,0,1,276.6,233.5Z"/><path class="cls-2" d="M291.93,219.89a2.22,2.22,0,0,1,.54,2.1,1.6,1.6,0,0,1-.55-2.14"/><path class="cls-2" d="M285.79,221a2.24,2.24,0,0,1,.53,2.1,1.61,1.61,0,0,1-.55-2.14"/><path class="cls-2" d="M292.54,225.79,287.22,227a2.11,2.11,0,0,0,3.07,1.53C292.84,227.48,292.54,225.79,292.54,225.79Z"/><path class="cls-2" d="M290.87,222.22l.75,1.55a.75.75,0,0,1,.11.52.42.42,0,0,1-.11.18.69.69,0,0,1-.49.23"/><path class="cls-24" d="M299.75,229.6a1.9,1.9,0,0,0-.38.83,1.51,1.51,0,0,0,.26.78A32.54,32.54,0,0,1,303.16,242a3.31,3.31,0,0,1-.14,1.95,2.31,2.31,0,0,1-2.16,1.1,6.33,6.33,0,0,1-2.42-.72,58.11,58.11,0,0,1-7.24-4,1.64,1.64,0,0,1-.51-.47,1.54,1.54,0,0,1-.12-.88c.09-1.59,1.46-2.57,1.56-4.15a25.39,25.39,0,0,1,4.13,2.32l-1-3.76a10.12,10.12,0,0,0-1.3-3.25,9.86,9.86,0,0,1-1-1.43,3,3,0,0,1,1.44-3.57C297.42,223.45,301.91,226,299.75,229.6Z"/><path class="cls-25" d="M293.2,217.53a1.54,1.54,0,0,0-.62-.49,1.38,1.38,0,0,0-.87.09,9.48,9.48,0,0,0-3.41,2.07,1.53,1.53,0,0,0-.58,1,1.59,1.59,0,0,0,.41.88,48.28,48.28,0,0,0,7.2,7.58.66.66,0,0,0,.38.21.76.76,0,0,0,.53-.21c.82-.61,2.76-1.53,3.22-2.43.59-1.16-.22-1.66-1-2.62C296.73,221.59,295.07,219.41,293.2,217.53Z"/><path class="cls-11" d="M276.22,246q.12-5.74.65-11.47a2,2,0,0,1,.19-.76,1.83,1.83,0,0,1,1.45-.64c2.12-.23,4.53-.83,6.65-.54a36,36,0,0,1,6.6,2,2.16,2.16,0,0,1,1,.56,2.19,2.19,0,0,1,.38,1.31,75.08,75.08,0,0,1-.07,10H276.22Z"/><path class="cls-24" d="M286.87,233.84a5.37,5.37,0,0,1-.26,1.65,2.83,2.83,0,0,1-4.77.87,4.91,4.91,0,0,1-1-2.35,16.68,16.68,0,0,1,0-6.1.36.36,0,0,1,.08-.2c.09-.1.25-.08.38-.05,1.27.27,4.22.49,5.15,1.46S286.93,232.54,286.87,233.84Z"/><path class="cls-24" d="M295.14,221a8.79,8.79,0,0,1-.65,6.34,7.91,7.91,0,0,1-6.45,3.7,12.58,12.58,0,0,1-7.31-2.19,5.05,5.05,0,0,1-1.91-1.9,2.09,2.09,0,0,1,.39-2.51,3.21,3.21,0,0,1,2.66-.24c.38-2.23-.55-4.87.93-6.58a5.26,5.26,0,0,1,2.2-1.35,29.38,29.38,0,0,1,6.67-1.74C293.37,214.32,294.84,219.73,295.14,221Z"/><path class="cls-26" d="M272,215.72a8.54,8.54,0,0,1,3-5.9,5,5,0,0,1,6.24-.07,7.38,7.38,0,0,1,6.9-1.19,11.4,11.4,0,0,1,5.67,4.42,8.59,8.59,0,0,1,1.66,4,3.74,3.74,0,0,1-.61,2.83c-.59-2-1.8-5.46-3.16-5.28a29.38,29.38,0,0,0-6.67,1.74,5.26,5.26,0,0,0-2.2,1.35c-1.48,1.71-.55,4.35-.93,6.58a3.21,3.21,0,0,0-2.66.24,2,2,0,0,0-.54,2.09l-.26-.05a8.47,8.47,0,0,1-5.2-4.16A11.15,11.15,0,0,1,272,215.72Z"/><path class="cls-24" d="M276.6,233.5a5.25,5.25,0,0,1,.77,0,1,1,0,0,0-.31.31,2,2,0,0,0-.19.76q-.53,5.73-.65,11.47v.45h-3.8V235.64a11.51,11.51,0,0,1,1.28-.92A7.34,7.34,0,0,1,276.6,233.5Z"/><path class="cls-5" d="M291.93,219.89a2.22,2.22,0,0,1,.54,2.1,1.6,1.6,0,0,1-.55-2.14"/><path class="cls-5" d="M285.79,221a2.24,2.24,0,0,1,.53,2.1,1.61,1.61,0,0,1-.55-2.14"/><path class="cls-4" d="M292.54,225.79,287.22,227a2.11,2.11,0,0,0,3.07,1.53C292.84,227.48,292.54,225.79,292.54,225.79Z"/><path class="cls-5" d="M290.87,222.22l.75,1.55a.75.75,0,0,1,.11.52.42.42,0,0,1-.11.18.69.69,0,0,1-.49.23"/><path class="cls-2" d="M238,250.5V210.55a18.83,18.83,0,1,0-37.65,0V250.5Z"/><path class="cls-2" d="M219.16,195.76A14.81,14.81,0,0,1,234,210.55v35.91H204.36V210.55a14.81,14.81,0,0,1,14.8-14.79"/><path class="cls-23" d="M238,250.5V210.55a18.83,18.83,0,1,0-37.65,0V250.5Z"/><path class="cls-17" d="M219.16,195.76A14.81,14.81,0,0,1,234,210.55v35.91H204.36V210.55a14.81,14.81,0,0,1,14.8-14.79"/><path class="cls-2" d="M170.14,250.5V210.55a18.83,18.83,0,1,0-37.66,0V250.5Z"/><path class="cls-2" d="M151.31,195.76a14.8,14.8,0,0,1,14.79,14.79v35.91H136.52V210.55a14.8,14.8,0,0,1,14.79-14.79"/><path class="cls-23" d="M170.14,250.5V210.55a18.83,18.83,0,1,0-37.66,0V250.5Z"/><path class="cls-19" d="M151.31,195.76a14.8,14.8,0,0,1,14.79,14.79v35.91H136.52V210.55a14.8,14.8,0,0,1,14.79-14.79"/><rect class="cls-2" x="108.28" y="250.5" width="221.76" height="10.82"/><rect class="cls-2" x="108.28" y="250.5" width="221.76" height="10.82"/><rect class="cls-27" x="108.28" y="250.5" width="221.76" height="10.82"/><rect class="cls-14" x="108.28" y="250.5" width="221.76" height="10.82"/><g id="Startup_Window_Reflection" data-name="Startup Window Reflection" class="cls-28"><path class="cls-29" d="M204.36,233.15l24.85-33.44a14.76,14.76,0,0,0-9.64-3.94l-15.21,20.47Z"/><path class="cls-29" d="M230.81,201.45l-26.45,35.6v9.41h1.39l28.08-37.79A14.8,14.8,0,0,0,230.81,201.45Z"/><polygon class="cls-29" points="220.69 246.46 233.95 228.61 233.95 221.84 215.66 246.46 220.69 246.46"/><polygon class="cls-29" points="225.28 246.46 233.95 234.8 233.95 231.42 222.77 246.46 225.28 246.46"/></g><path id="Startup_Center_Window_Stroke" data-name="Startup Center Window Stroke" class="cls-5" d="M219.16,195.76A14.81,14.81,0,0,1,234,210.55v35.91H204.36V210.55a14.81,14.81,0,0,1,14.8-14.79"/><rect id="Startup_Window_HR" data-name="Startup Window HR" class="cls-23" x="203.36" y="219.09" width="31.2" height="4.03"/><g id="Startup_Door_Reflection" data-name="Startup Door Reflection" class="cls-30"><polygon class="cls-29" points="235.51 360.48 245.02 360.48 330.03 275.46 330.03 273.6 322.39 273.6 235.51 360.48"/><polygon class="cls-29" points="229.13 360.48 316.02 273.6 292.24 273.6 205.36 360.48 229.13 360.48"/><polygon class="cls-29" points="156.5 360.48 243.38 273.6 229.11 273.6 142.23 360.48 156.5 360.48"/><polygon class="cls-29" points="189.86 273.6 108.28 355.18 108.28 360.48 136.26 360.48 223.15 273.6 189.86 273.6"/></g><rect class="cls-5" x="108.28" y="273.59" width="221.76" height="86.88"/><path class="cls-31" d="M44.32,393.33h0a.53.53,0,0,0-.06.1Z"/><path class="cls-2" d="M144.71,235.11a7.5,7.5,0,0,1,.49-1.8c.78-1.68,2.64-2.56,4.4-3.15a34.69,34.69,0,0,1,9.08-1.76c2.65-.15,5.58,1.33,7.77,2.74a6,6,0,0,1,1.84,1.65h0v13.66h-23.7A37.24,37.24,0,0,1,144.71,235.11Z"/><path class="cls-2" d="M142.05,217a6.22,6.22,0,0,1,1.26-4.35c1.18-1.24,3.07-1.41,4.79-1.45a32.25,32.25,0,0,1,7.73.51,80.14,80.14,0,0,1,.22,12.49c-.05.81-.22,1.77-1,2.09a2.44,2.44,0,0,1-1.88-.28,15.61,15.61,0,0,0-8.46-1c-1.6.25-2-.74-2.2-2.07A45,45,0,0,1,142.05,217Z"/><path class="cls-2" d="M151.48,218a5.29,5.29,0,0,1,.09,2.17.51.51,0,0,1-.1.25.32.32,0,0,1-.42,0,.78.78,0,0,1-.19-.41,3.06,3.06,0,0,1,.26-2.06.2.2,0,0,1,.08-.1c.14-.07.21.18.18.33"/><path class="cls-2" d="M145,218a5.29,5.29,0,0,1,.09,2.17.51.51,0,0,1-.1.25.32.32,0,0,1-.42,0,.78.78,0,0,1-.19-.41,3.06,3.06,0,0,1,.26-2.06.2.2,0,0,1,.08-.1c.14-.07.21.18.18.33"/><path class="cls-2" d="M139.73,220.23a5.72,5.72,0,0,0,1,3.07,2.38,2.38,0,0,0,1.81,1.29.25.25,0,0,0,.19-.05.3.3,0,0,0,0-.28c-.29-2-.25-4.6-.93-6.55S139.74,219.33,139.73,220.23Z"/><path class="cls-2" d="M150.44,215.62a2.13,2.13,0,0,1,2.75.48"/><path class="cls-2" d="M157.4,234.41a3.73,3.73,0,0,1-1.61.38c-1.58,0-2.75-1.42-3.7-2.69,2.32-.61,4.62-2.26,4.94-4.64a8.54,8.54,0,0,0-.05-2l-.35-3.18a8.12,8.12,0,0,1,0-2.41,2.76,2.76,0,0,1,1.29-1.95.69.69,0,0,1,1,.18c.9,1.09.8,2.66,1.31,4a8.3,8.3,0,0,1,.49,1.25,4.22,4.22,0,0,1,.07,1.12c0,1.93.23,4.07,0,6A5.65,5.65,0,0,1,157.4,234.41Z"/><path class="cls-2" d="M146.19,215.92a2.32,2.32,0,0,0-2.92.46"/><path class="cls-2" d="M146.68,205.92a5.44,5.44,0,0,0-3.25,2.15,2.79,2.79,0,0,0,.46,3.6,4.21,4.21,0,0,0,2.43.59c3,.1,6,.07,9,.05.28,3.42.44,6.86.49,10.3a4.24,4.24,0,0,1-.31,2,1.5,1.5,0,0,1-1.68.87,2.67,2.67,0,0,1-.95-.69,4.92,4.92,0,0,0-4-1.15,2.85,2.85,0,0,1-.82.07,3.62,3.62,0,0,1-.56-.17,4.29,4.29,0,0,0-3.17,8,8.68,8.68,0,0,0,3.21.5c2.7.07,5.52.26,8.11-.68a6.62,6.62,0,0,0,3.4-2.52,9,9,0,0,0,1-2.43c.42-1.41.78-2.85,1.08-4.3.12-.58.33-1-.05-1.46-.14-.18-1.16-.73-.92-1.06.36-.5.27-1.57.49-2.14s-.56-2.32,0-2.47c.32-.08-1.83-3.59-2-3.93a14.45,14.45,0,0,0-2.92-3.77C153.53,205.28,149.37,205.14,146.68,205.92Z"/><path class="cls-2" d="M149,227.05c-.28,1.07-.89,1.76-1.5,1.69s-1.17-.9-1.39-2Z"/><path class="cls-2" d="M158,207.33a10,10,0,0,1,3.55,5.28c.18.68.61,2,.14,2.65s-1.68.15-2.2,1.1a8,8,0,0,0,0,7.55,2.46,2.46,0,0,0,1.16,1.2,2.07,2.07,0,0,0,1,.09,4.45,4.45,0,0,0,3.37-2.37,5.6,5.6,0,0,0,.33-4.16,4.82,4.82,0,0,0-2-2.72c-1.12-.69-1.95-.32-3.16-.18.5-.06-1.49-4.93-1.72-5.32a12.89,12.89,0,0,0-1.71-2.24c-.57-.59-1.7-1.18-2-1.86C155.72,205.86,157.17,206.71,158,207.33Z"/><path class="cls-2" d="M159.94,224.67a3.61,3.61,0,0,1-1.81,3.28c-1.29.73-2.86.59-4.33.81"/><path class="cls-2" d="M153.8,228.76a1.16,1.16,0,0,0-.79-1,2.79,2.79,0,0,0-1.32-.11c-.55.06-1.18.23-1.37.74a1.09,1.09,0,0,0,.81,1.28,3,3,0,0,0,1.67-.12c.43-.11,1-.32,1-.77"/><path class="cls-17" d="M144.71,235.11a7.5,7.5,0,0,1,.49-1.8c.78-1.68,2.64-2.56,4.4-3.15a34.69,34.69,0,0,1,9.08-1.76c2.65-.15,5.58,1.33,7.77,2.74a6,6,0,0,1,1.84,1.65h0v13.66h-23.7A37.24,37.24,0,0,1,144.71,235.11Z"/><path class="cls-32" d="M142.05,217a6.22,6.22,0,0,1,1.26-4.35c1.18-1.24,3.07-1.41,4.79-1.45a32.25,32.25,0,0,1,7.73.51,80.14,80.14,0,0,1,.22,12.49c-.05.81-.22,1.77-1,2.09a2.44,2.44,0,0,1-1.88-.28,15.61,15.61,0,0,0-8.46-1c-1.6.25-2-.74-2.2-2.07A45,45,0,0,1,142.05,217Z"/><path class="cls-25" d="M151.48,218a5.29,5.29,0,0,1,.09,2.17.51.51,0,0,1-.1.25.32.32,0,0,1-.42,0,.78.78,0,0,1-.19-.41,3.06,3.06,0,0,1,.26-2.06.2.2,0,0,1,.08-.1c.14-.07.21.18.18.33"/><path class="cls-25" d="M145,218a5.29,5.29,0,0,1,.09,2.17.51.51,0,0,1-.1.25.32.32,0,0,1-.42,0,.78.78,0,0,1-.19-.41,3.06,3.06,0,0,1,.26-2.06.2.2,0,0,1,.08-.1c.14-.07.21.18.18.33"/><path class="cls-33" d="M139.73,220.23a5.72,5.72,0,0,0,1,3.07,2.38,2.38,0,0,0,1.81,1.29.25.25,0,0,0,.19-.05.3.3,0,0,0,0-.28c-.29-2-.25-4.6-.93-6.55S139.74,219.33,139.73,220.23Z"/><path class="cls-5" d="M150.44,215.62a2.13,2.13,0,0,1,2.75.48"/><path class="cls-32" d="M157.4,234.41a3.73,3.73,0,0,1-1.61.38c-1.58,0-2.75-1.42-3.7-2.69,2.32-.61,4.62-2.26,4.94-4.64a8.54,8.54,0,0,0-.05-2l-.35-3.18a8.12,8.12,0,0,1,0-2.41,2.76,2.76,0,0,1,1.29-1.95.69.69,0,0,1,1,.18c.9,1.09.8,2.66,1.31,4a8.3,8.3,0,0,1,.49,1.25,4.22,4.22,0,0,1,.07,1.12c0,1.93.23,4.07,0,6A5.65,5.65,0,0,1,157.4,234.41Z"/><path class="cls-5" d="M146.19,215.92a2.32,2.32,0,0,0-2.92.46"/><path class="cls-34" d="M146.68,205.92a5.44,5.44,0,0,0-3.25,2.15,2.79,2.79,0,0,0,.46,3.6,4.21,4.21,0,0,0,2.43.59c3,.1,6,.07,9,.05.28,3.42.44,6.86.49,10.3a4.24,4.24,0,0,1-.31,2,1.5,1.5,0,0,1-1.68.87,2.67,2.67,0,0,1-.95-.69,4.92,4.92,0,0,0-4-1.15,2.85,2.85,0,0,1-.82.07,3.62,3.62,0,0,1-.56-.17,4.29,4.29,0,0,0-3.17,8,8.68,8.68,0,0,0,3.21.5c2.7.07,5.52.26,8.11-.68a6.62,6.62,0,0,0,3.4-2.52,9,9,0,0,0,1-2.43c.42-1.41.78-2.85,1.08-4.3.12-.58.33-1-.05-1.46-.14-.18-1.16-.73-.92-1.06.36-.5.27-1.57.49-2.14s-.56-2.32,0-2.47c.32-.08-1.83-3.59-2-3.93a14.45,14.45,0,0,0-2.92-3.77C153.53,205.28,149.37,205.14,146.68,205.92Z"/><path class="cls-4" d="M149,227.05c-.28,1.07-.89,1.76-1.5,1.69s-1.17-.9-1.39-2Z"/><path class="cls-33" d="M158,207.33a10,10,0,0,1,3.55,5.28c.18.68.61,2,.14,2.65s-1.68.15-2.2,1.1a8,8,0,0,0,0,7.55,2.46,2.46,0,0,0,1.16,1.2,2.07,2.07,0,0,0,1,.09,4.45,4.45,0,0,0,3.37-2.37,5.6,5.6,0,0,0,.33-4.16,4.82,4.82,0,0,0-2-2.72c-1.12-.69-1.95-.32-3.16-.18.5-.06-1.49-4.93-1.72-5.32a12.89,12.89,0,0,0-1.71-2.24c-.57-.59-1.7-1.18-2-1.86C155.72,205.86,157.17,206.71,158,207.33Z"/><path class="cls-5" d="M159.94,224.67a3.61,3.61,0,0,1-1.81,3.28c-1.29.73-2.86.59-4.33.81"/><path class="cls-33" d="M153.8,228.76a1.16,1.16,0,0,0-.79-1,2.79,2.79,0,0,0-1.32-.11c-.55.06-1.18.23-1.37.74a1.09,1.09,0,0,0,.81,1.28,3,3,0,0,0,1.67-.12c.43-.11,1-.32,1-.77"/><path id="Startup_Window_Frame_2" data-name="Startup Window Frame 2" class="cls-23" d="M151.31,191.72a18.83,18.83,0,0,0-18.83,18.83v38.38h37.66V210.55A18.83,18.83,0,0,0,151.31,191.72Zm14.79,54.74H136.52V210.55a14.79,14.79,0,1,1,29.58,0Z"/><path id="Startup_Window_Frame_2-2" data-name="Startup Window Frame 2" class="cls-23" d="M287,191.72a18.83,18.83,0,0,0-18.83,18.83v38.38h37.66V210.55A18.83,18.83,0,0,0,287,191.72Zm14.79,54.74H272.21V210.55a14.79,14.79,0,1,1,29.58,0Z"/><g id="Startup_Customer_Video_Chat" data-name="Startup Customer Video Chat"><rect class="cls-35" x="0.5" y="0.5" width="119.37" height="89.77" rx="20" ry="20"/><rect class="cls-35" x="9.25" y="55.78" width="33" height="25.76" rx="5" ry="5"/><path class="cls-35" d="M45.33,23.41A4.61,4.61,0,0,1,45.7,21a1.78,1.78,0,0,1,2-1c-.05-1.65,1.28-3,2.61-4a22.85,22.85,0,0,1,15.8-4.58A18.61,18.61,0,0,1,80,20c.69,1.13,1.1,2.9,0,3.57a4.14,4.14,0,0,1,2.26,3.85A12.29,12.29,0,0,1,81,32l-3,7.39L77.2,27.05a2.82,2.82,0,0,0-.38-1.46,2.65,2.65,0,0,0-1.25-.8,34.34,34.34,0,0,0-22.46-.93,4.85,4.85,0,0,0-2.7,1.58,5.25,5.25,0,0,0-.71,2.32c-.23,1.65,0,5.56-1.45,6.6C46,32.25,45.45,26.38,45.33,23.41Z"/><path class="cls-35" d="M77.2,27.05a2.82,2.82,0,0,0-.38-1.46,2.65,2.65,0,0,0-1.25-.8,34.34,34.34,0,0,0-22.46-.93,4.85,4.85,0,0,0-2.7,1.58,5.25,5.25,0,0,0-.71,2.32c-.23,1.65,0,5.56-1.45,6.6q-.14-.13-.27-.3a43.32,43.32,0,0,1,.27,9,4.89,4.89,0,0,0,.06,1.75c.49,1.76,2.76,2.51,3.37,4.23a9.62,9.62,0,0,1,6.11-4.33,19.09,19.09,0,0,1,6.57.11A21.14,21.14,0,0,1,70,46.07,7.08,7.08,0,0,1,74,50a11,11,0,0,0,3-4.5,21.81,21.81,0,0,0,.87-3.86l.48-2.94-.26.66Q77.65,33.21,77.2,27.05Z"/><path class="cls-35" d="M78,48.49c-.16-1.68-.32-3.36-.49-5A14.54,14.54,0,0,1,77,45.51,11,11,0,0,1,74,50a7.08,7.08,0,0,0-4-3.94,21.14,21.14,0,0,0-5.63-1.29,19.09,19.09,0,0,0-6.57-.11A9.62,9.62,0,0,0,51.68,49c-.61-1.72-2.88-2.47-3.37-4.23a2.53,2.53,0,0,1-.09-.55c-1.14,2-.85,5-.23,7.06a18,18,0,0,0,4.39,7.16c3.5,3.68,8.46,6.42,13.48,5.72,3.68-.51,6.92-2.81,9.34-5.63a12,12,0,0,0,2.79-5A16.12,16.12,0,0,0,78,48.49Z"/><path class="cls-35" d="M54.06,51.71a4.33,4.33,0,0,0,1.09,2,14.11,14.11,0,0,0,7.24,4.47,6.3,6.3,0,0,0,2.16.24,7.28,7.28,0,0,0,3.36-1.46,7.3,7.3,0,0,0,2.73-2.87,4.26,4.26,0,0,0-.5-4.24c-1.15-1.5-3.14-2-5-2.45-2.57-.56-5.35-1-8-.37A4.47,4.47,0,0,0,54.06,51.71Z"/><path class="cls-35" d="M66.85,51.59a6.15,6.15,0,0,1-1.95,2.69A3.78,3.78,0,0,1,60.53,54,4.31,4.31,0,0,1,59.1,51.6"/><path class="cls-35" d="M62.77,38.72a18.25,18.25,0,0,0-1.68,2.77,1.58,1.58,0,0,0-.22.91,1.38,1.38,0,0,0,.35.65A5.22,5.22,0,0,0,63,44.42"/><path class="cls-36" d="M56.25,35.83a4.91,4.91,0,0,0-.35,1.69,1.69,1.69,0,0,0,.16.83.7.7,0,0,0,.69.39c.4-.07.59-.53.69-.92a2.58,2.58,0,0,0,.08-1.32.94.94,0,0,0-1-.71"/><path class="cls-36" d="M69.22,36.8a4.89,4.89,0,0,0-.34,1.69,1.58,1.58,0,0,0,.15.83.74.74,0,0,0,.7.39c.4-.07.58-.53.68-.92a2.49,2.49,0,0,0,.08-1.32.93.93,0,0,0-1-.71"/><path class="cls-35" d="M59.07,32.8a3.8,3.8,0,0,0-5.58-.14,18.89,18.89,0,0,1-1.38,1.57"/><path class="cls-35" d="M67.25,33.34a4,4,0,0,1,6.89,1"/><path class="cls-35" d="M48.25,43a43.32,43.32,0,0,0-.27-9l.12.13a4.94,4.94,0,0,1-.53-.66c-2.82-1.26-4.22,6.15-4,8a7.66,7.66,0,0,0,2.38,5c.4.35,1,.66,1.43.34a.65.65,0,0,0,.16-.17,6.29,6.29,0,0,1,.72-2.45A8,8,0,0,1,48.25,43Z"/><path class="cls-35" d="M81.62,38.79a2.43,2.43,0,0,0-.41-.74,1.69,1.69,0,0,0-2.31.14,3.11,3.11,0,0,0-.61.87c-.14.86-.29,1.73-.43,2.59-.1.6-.2,1.2-.32,1.8.17,1.68.33,3.36.49,5,.09.91.18,1.82.18,2.73a1.89,1.89,0,0,0,2-.23,4.37,4.37,0,0,0,1.26-1.86A14.1,14.1,0,0,0,81.62,38.79Z"/><path class="cls-35" d="M119.87,76.83V74c-1.48-3.1-3.06-6.17-4.5-9.27-1-2.15-1.92-4.17-1.82-6.54s.48-4.81-.11-7.12a24.59,24.59,0,0,0-1.09-3,50.78,50.78,0,0,1-2.43-9.58,3.78,3.78,0,0,0-.61-1.72,1.33,1.33,0,0,0-1.62-.47c-.66.38-.64,1.33-.53,2.09q.53,3.63,1.25,7.25-1.59-5.72-3.47-11.34c-.26-.79-.71-1.72-1.54-1.76a1.43,1.43,0,0,0-1.32,1.19,4.25,4.25,0,0,0,.16,1.9l2.07,8.52a72.87,72.87,0,0,1-3.47-10.69,5.06,5.06,0,0,0-.58-1.62A1.67,1.67,0,0,0,98.85,31a1.69,1.69,0,0,0-1.44,1.45,4.93,4.93,0,0,0,.24,2.18c.81,3.07,1.63,6.14,2.44,9.2a1.09,1.09,0,0,1,0,.85.71.71,0,0,1-1,0,2.07,2.07,0,0,1-.53-1l-2.37-7.76a3.7,3.7,0,0,0-.87-1.69,1.25,1.25,0,0,0-1.72,0,1.59,1.59,0,0,0-.24,1.19,16.9,16.9,0,0,0,.6,3.06c1,3.71,1.82,7.28,2.78,11l.07.08.5.52.06.06.08.06a1.71,1.71,0,0,0,.2.18c.3.22,1,.69,1,.69s.51.19,1.7.54a9.52,9.52,0,0,1,1.32.37,5,5,0,0,1,2.89,2.66,5.31,5.31,0,0,0-2.89-2.66l-1.32-.37a8.41,8.41,0,0,1-1.7-.54,5.08,5.08,0,0,1-1-.69s0,0-.06-.05a.79.79,0,0,1-.14-.13l-.08-.06L97.27,50l-.5-.52-.07-.07h0c-.36-.39-.7-.8-1.06-1.18a4.49,4.49,0,0,0-3.52-1.78,1.3,1.3,0,0,0-.8.33c-.53.52-.22,1.42.12,2.08l3.6,7a16.37,16.37,0,0,0,2.08,3.36,33.88,33.88,0,0,0,3.37,3c3.91,3.5,5.65,8.84,6.44,14,.7,4.58.8,9.26,1.69,13.8A13.49,13.49,0,0,0,119.87,76.83Z"/><path class="cls-35" d="M51.59,75.33a24,24,0,0,0,11.58,3,23,23,0,0,0,4.75-.49,24.07,24.07,0,0,0,11-5.55,8.58,8.58,0,0,1-2.43-1.5,7.28,7.28,0,0,1-1.59-2.15,18.26,18.26,0,0,1-20.68,2,16.47,16.47,0,0,1-1.73-1.11,6.89,6.89,0,0,1-1.06,1.23,9.72,9.72,0,0,1-3.58,1.93A21.15,21.15,0,0,0,51.59,75.33Z"/><path class="cls-35" d="M27.51,66.81a3.35,3.35,0,0,0-.06,1.41.26.26,0,0,0,.07.16.2.2,0,0,0,.27,0,.52.52,0,0,0,.12-.26,2,2,0,0,0-.17-1.33.12.12,0,0,0,0-.07c-.09,0-.14.12-.12.22"/><path class="cls-35" d="M31.7,66.81a3.35,3.35,0,0,0-.06,1.41.26.26,0,0,0,.07.16.2.2,0,0,0,.27,0,.52.52,0,0,0,.12-.26,2,2,0,0,0-.17-1.33.12.12,0,0,0-.05-.07c-.09,0-.14.12-.12.22"/><path class="cls-35" d="M35.1,68.23a3.62,3.62,0,0,1-.61,2,1.53,1.53,0,0,1-1.17.83.21.21,0,0,1-.13,0,.22.22,0,0,1,0-.18,24.64,24.64,0,0,1,.61-4.23C34.21,65.34,35.1,67.65,35.1,68.23Z"/><path class="cls-35" d="M28.18,65.25a1.36,1.36,0,0,0-1.77.32"/><path class="cls-35" d="M30.93,65.45a1.5,1.5,0,0,1,1.88.29"/><path class="cls-35" d="M33.64,72a2.89,2.89,0,0,0-3.53-1.58,1.37,1.37,0,0,1-.36.11,1.9,1.9,0,0,1-.53,0,3.17,3.17,0,0,0-2.59.74,1.89,1.89,0,0,1-.61.45,1,1,0,0,1-1.09-.57,2.63,2.63,0,0,1-.2-1.31c0-2.22.13-4.44.32-6.66,1.93,0,3.86,0,5.8,0a2.69,2.69,0,0,0,1.56-.38,1.8,1.8,0,0,0,.3-2.33A3.53,3.53,0,0,0,30.61,59c-1.72-.5-4.37-.41-5.8.84l-.08.08a9.25,9.25,0,0,0-1.45,1.73v0c-.14.21-.26.42-.38.64s-1.32,3-1,3.06l-.18,0v0a.77.77,0,0,1,.62.38,5.18,5.18,0,0,1,0,4.88,1.67,1.67,0,0,1-.61.7c.09.31.16.61.25.91a6.29,6.29,0,0,0,.66,1.58,4.3,4.3,0,0,0,2.19,1.62,14.07,14.07,0,0,0,5.25.44,5.55,5.55,0,0,0,2.07-.32A2.89,2.89,0,0,0,33.64,72Z"/><path class="cls-35" d="M29.1,72.64c.19.7.58,1.14,1,1.09s.76-.58.9-1.3Z"/><path class="cls-35" d="M22,71.11a2.36,2.36,0,0,0,1.17,2.12,8.09,8.09,0,0,0,2.8.52.74.74,0,0,1,.51-.64,1.74,1.74,0,0,1,.85-.07c.36,0,.77.14.89.48a.72.72,0,0,1-.53.83,2.06,2.06,0,0,1-1.07-.08c-.29-.07-.63-.21-.64-.5"/><path class="cls-35" d="M19.85,65.47a3.15,3.15,0,0,0-1.28,1.75,3.66,3.66,0,0,0,.22,2.7A2.9,2.9,0,0,0,21,71.45a1.4,1.4,0,0,0,.64-.06,1.52,1.52,0,0,0,.74-.78,5.18,5.18,0,0,0,0-4.88c-.26-.47-.74-.34-1.12-.48A1.79,1.79,0,0,0,19.85,65.47Z"/><path class="cls-35" d="M23.3,59.89A6.49,6.49,0,0,0,21,63.31c-.12.44-.4,1.29-.1,1.71a.64.64,0,0,0,.3.23l.69.1c-.33,0,.84-2.81,1-3.06a11.45,11.45,0,0,1,1-1.55,14.09,14.09,0,0,1,1.54-1.48C24.77,59,23.83,59.49,23.3,59.89Z"/><path class="cls-35" d="M25.05,63.11c-.19,2.22-.29,4.44-.32,6.66a2.63,2.63,0,0,0,.2,1.31,1,1,0,0,0,1.09.57,1.89,1.89,0,0,0,.61-.45,3.17,3.17,0,0,1,2.59-.74,1.9,1.9,0,0,0,.53,0,1.37,1.37,0,0,0,.36-.11,2.88,2.88,0,0,1,2.83.61,2,2,0,0,0,.34-1,30.28,30.28,0,0,0,.33-3.82,4.06,4.06,0,0,0-.82-2.81,2.33,2.33,0,0,0-.65-.48,3.28,3.28,0,0,1-1.29.22C28.91,63.15,27,63.13,25.05,63.11Z"/><path class="cls-35" d="M22.65,73.8A6.29,6.29,0,0,1,22,72.22c-.09-.3-.16-.6-.25-.91a.57.57,0,0,1-.13.08l-.11,0a27.39,27.39,0,0,0,0,3.39,3.61,3.61,0,0,0,2.18,2.59,2.38,2.38,0,0,0,1,.25c1,0,1.78-.92,2.39-1.74l-.18-.06a7.93,7.93,0,0,1-2.09-.43A4.3,4.3,0,0,1,22.65,73.8Z"/><path class="cls-35" d="M31.88,77.85a4.33,4.33,0,0,0-.31-1.16,2.83,2.83,0,0,0-.66-.87l-.82,0a27.77,27.77,0,0,1-3.16,0l.18.06c-.61.82-1.37,1.72-2.39,1.74a2.38,2.38,0,0,1-1-.25,3.64,3.64,0,0,1-2.19-2.59,8.93,8.93,0,0,1,0-1.16,11.47,11.47,0,0,0-3.62,1.64,8.6,8.6,0,0,0-3.35,4.93,11.74,11.74,0,0,0-.28,1.31h18A24,24,0,0,0,31.88,77.85Z"/><path class="cls-35" d="M101.18,90.27a40.46,40.46,0,0,1-3.31-4.9c-1.19-2.1-2.13-4.53-3.79-6.28a15.36,15.36,0,0,0-4.38-3,34.8,34.8,0,0,0-6.22-2.41c-2.47-.69-5.13-1.18-7-2.9a8.73,8.73,0,0,1-2.58-5.86,19,19,0,0,1,.55-5.51,15,15,0,0,1-8.57,4.79c-4.53.63-9-1.55-12.41-4.67A18.5,18.5,0,0,1,54,64.88a8.73,8.73,0,0,1-2.58,5.86c-1.89,1.72-4.56,2.21-7,2.9-.72.2-1.42.43-2.13.68v3.85a3.37,3.37,0,0,1-3.36,3.36H32.05a20.52,20.52,0,0,0-1.87,8.74Z"/><path class="cls-35" d="M13.77,11.31a1.92,1.92,0,0,1,1.93,1.93"/><path class="cls-35" d="M13.77,8.53a4.71,4.71,0,0,1,4.71,4.71"/><path class="cls-35" d="M13.77,5.84a7.4,7.4,0,0,1,7.4,7.4"/><path class="cls-35" d="M6.13,12.25A3.25,3.25,0,0,1,7.74,9.6a.8.8,0,0,1,1,.11c.61.58,1.22,1.17,1.81,1.79a.92.92,0,0,1,0,1.36c-.37.4-.76.77-1.14,1.16a.69.69,0,0,0,0,1.09c.84.85,1.69,1.69,2.53,2.53a.7.7,0,0,0,1.1,0l1.07-1.07a1,1,0,0,1,1.56,0c.52.5,1,1,1.54,1.53a1,1,0,0,1,0,1.56,3.16,3.16,0,0,1-3.77,1,11,11,0,0,1-7-6.85A9.9,9.9,0,0,1,6.13,12.25Z"/><g id="Dashed_Line" data-name="Dashed Line"><line class="cls-35" x1="62.46" y1="164.92" x2="62.46" y2="162.42"/><line class="cls-37" x1="62.46" y1="157.06" x2="62.46" y2="95.45"/><line class="cls-35" x1="62.46" y1="92.77" x2="62.46" y2="90.27"/><line class="cls-35" x1="139.58" y1="222.75" x2="137.08" y2="222.75"/><path class="cls-38" d="M132.14,222.75H75.91A13.49,13.49,0,0,1,62.46,209.3V170.56"/><line class="cls-35" x1="62.46" y1="168.09" x2="62.46" y2="165.59"/></g></g><path class="cls-2" d="M231,361.46c-.41.3-.86.86-.53,1.25a1,1,0,0,0,.53.25,17,17,0,0,0,8-.15,2.4,2.4,0,0,0,2.26-2.38,15.25,15.25,0,0,0-.14-4.67C241,355.07,231.54,361.08,231,361.46Z"/><path class="cls-2" d="M244.28,362.1a4.49,4.49,0,0,0-1.07,1.06,1.29,1.29,0,0,0,0,1.43,1.82,1.82,0,0,0,1.49.49,22.18,22.18,0,0,0,4-.39c1.81-.35,3.75-1.08,4.58-2.72a7.08,7.08,0,0,0,.51-3.3,2.59,2.59,0,0,0-.24-1.33,2.31,2.31,0,0,0-2.41-.74c-1.91.29-2.52,0-3.54,1.71A15,15,0,0,1,244.28,362.1Z"/><path class="cls-2" d="M242.21,339.94,242,354a6.68,6.68,0,0,1-.43,2.71c-1.05,2.22-4.17,2.54-6.48,1.71A292.89,292.89,0,0,1,233.36,321c3.63-.43,7.24-.4,10.89-.61a1.12,1.12,0,0,1,1.41,1A21.43,21.43,0,0,1,242.21,339.94Z"/><path class="cls-2" d="M233.26,313.59a82.08,82.08,0,0,1-12.51,4.2,24.73,24.73,0,0,1-1-4.05,1.93,1.93,0,0,1,.11-1.26,2,2,0,0,1,1.16-.75l7.2-2.48a5.89,5.89,0,0,0,2.5-1.34,6,6,0,0,0,1.12-2.1l2.61-7.05a5.07,5.07,0,0,1,.87-1.68,12.59,12.59,0,0,1,1.81-1.33,4.23,4.23,0,0,0,1.55-3.81c1.35-.36,2.46-.47,3.81-.83a1.81,1.81,0,0,1,1.05-.08,2.34,2.34,0,0,1,1,.84c1.43,1.62,3.84,2.1,5.31,3.69s1.66,3.6,1.9,5.59a32.49,32.49,0,0,1,.2,9.69,31.53,31.53,0,0,1-1.76,5.67l-2.55,6.74a3.09,3.09,0,0,1-1.34,1.88c-1.6.74-3-1.43-4.69-1.92a33.89,33.89,0,0,0,4.6-24.74"/><path class="cls-2" d="M234,301.54c.06,3.48-.48,16.16-.84,19.61a43,43,0,0,0,8.64,1.16,13.19,13.19,0,0,0,3.59-.45,1.19,1.19,0,0,0,.52-.24,1.35,1.35,0,0,0,.24-.46c1.35-3.85,2.72-7.77,2.91-11.85.05-1.24,0-2.49-.07-3.73-.16-3.05-.42-6.18-1.74-8.93"/><path class="cls-2" d="M244.45,285.53c.18-2.07-1.59-3.78-3.4-4.8a4.82,4.82,0,0,0-2-.7,3.58,3.58,0,0,0-3.14,1.78,7.28,7.28,0,0,0-1,3.61,15.31,15.31,0,0,0,.35,4.11,2.54,2.54,0,0,0,1.37,2.05c.3.1.63.08,1,.16a1.68,1.68,0,0,1,1.22,1.72c0-.41,3.65-1.65,4.22-2.63A17,17,0,0,0,244.45,285.53Z"/><path class="cls-2" d="M238.05,327.23c1.67,4.14,3.15,8.36,4.43,12.63a146.52,146.52,0,0,1,4.23,18,9.81,9.81,0,0,0,7.91-.69l-2.47-10.81c-.6-2.64-1.21-5.28-1.67-7.95a76.18,76.18,0,0,1-.8-19.95"/><path class="cls-2" d="M236.76,323.3a1.24,1.24,0,0,0,1.05,1.77q6.54,2.3,13.21,4.18a64.76,64.76,0,0,0,3.19-10.75l-6.69-2.16c-2.05-.67-4.72-2.12-6.87-2.23-1.86-.1-1.72,1.15-2.21,2.87C237.84,319.08,237.26,321.18,236.76,323.3Z"/><path class="cls-2" d="M242.05,323.33a10.79,10.79,0,0,0-.76,3.46,1.16,1.16,0,0,0,.08.58,1.08,1.08,0,0,0,.52.39,5.76,5.76,0,0,0,3,.49.79.79,0,0,0,.87-.66,8,8,0,0,0,.43-2.48,6.82,6.82,0,0,1-3.65-1.8"/><path class="cls-2" d="M209.79,359.53a4.5,4.5,0,0,0,1.43,1.45,5.58,5.58,0,0,0,1.63.29,1.61,1.61,0,0,1,1.35.84,1.27,1.27,0,0,1-.43,1.33,3.08,3.08,0,0,1-1.34.6,7.55,7.55,0,0,1-3.34.17,27.65,27.65,0,0,0-3.18-.85c-.88-.08-1.76.15-2.63,0a1.45,1.45,0,0,1-.73-.28,1.73,1.73,0,0,1-.46-1.15,19.53,19.53,0,0,1-.1-3.42,2.23,2.23,0,0,1,.55-1.6,2.09,2.09,0,0,1,1.29-.38A6.78,6.78,0,0,1,209.79,359.53Z"/><path class="cls-2" d="M191.4,360.17a4.47,4.47,0,0,0,.61,1.95,6,6,0,0,0,1.32,1,1.59,1.59,0,0,1,.81,1.36,1.29,1.29,0,0,1-1,1,3.15,3.15,0,0,1-1.46-.08,7.67,7.67,0,0,1-3.05-1.37,28.53,28.53,0,0,0-2.45-2.22c-.74-.46-1.63-.66-2.35-1.16a1.52,1.52,0,0,1-.52-.58,1.74,1.74,0,0,1,.12-1.24,18.6,18.6,0,0,1,1.47-3.09,2.21,2.21,0,0,1,1.22-1.17,2.06,2.06,0,0,1,1.32.24A6.83,6.83,0,0,1,191.4,360.17Z"/><path class="cls-2" d="M208.88,356.61a1.31,1.31,0,0,1,0,.65c-.11.38-.53.57-.9.69a9.41,9.41,0,0,1-5.18.19,1.81,1.81,0,0,1-.86-.41,2,2,0,0,1-.43-1.05c-1.68-8.72-3.11-17.57-6.33-25.86-.31-.8-.53-1.91.21-2.34a1.75,1.75,0,0,1,.79-.17c1.25-.08,5.09-.78,6.06.12.53.49.58,2.05.73,2.7l.81,3.53L207,348.61Z"/><path class="cls-2" d="M192.72,340.31a6.3,6.3,0,0,1,0,1.89,6.11,6.11,0,0,1-.86,2c-2.19,3.66-4.86,7-7.25,10.53a.59.59,0,0,0-.15.45.55.55,0,0,0,.25.31,10.48,10.48,0,0,0,7.33,2.1l7.08-13a5.53,5.53,0,0,0,.74-1.9,5.72,5.72,0,0,0-.09-1.49l-2-12.87a1.08,1.08,0,0,0-.2-.56,1,1,0,0,0-.71-.23,14.29,14.29,0,0,0-4.27.47c-1.87.5-1.74.81-1.42,2.6Q192.1,335.42,192.72,340.31Z"/><path class="cls-2" d="M244.49,291.87c1.43,1.62,3.84,2.1,5.31,3.69s1.66,3.6,1.9,5.59a32.49,32.49,0,0,1,.2,9.69,31.53,31.53,0,0,1-1.76,5.67l-2.55,6.74a3.09,3.09,0,0,1-1.34,1.88c-1.6.74-3-1.43-4.69-1.92a33.89,33.89,0,0,0,4.6-24.74"/><path class="cls-2" d="M194.77,298.12c-.57,1.4-1.9,2.33-2.74,3.58a11.18,11.18,0,0,0-1.47,5.16,123.23,123.23,0,0,0-.53,20.6,1.79,1.79,0,0,0,.39,1.24,1.74,1.74,0,0,0,.9.38,29.38,29.38,0,0,0,10.9.25,1.76,1.76,0,0,0,1.38-.72,1.79,1.79,0,0,0,.13-.83,130.73,130.73,0,0,0-4.08-31.31,3.24,3.24,0,0,0-.53-1.25,5.18,5.18,0,0,0-3.66-.9C194.61,294.65,195.2,297.05,194.77,298.12Z"/><path class="cls-2" d="M200.28,296.66a3.5,3.5,0,0,1,.78-.51,4,4,0,0,0,1.75-3.52,8.11,8.11,0,0,0-1.27-3.87,8.69,8.69,0,0,0-4.18-4,4.42,4.42,0,0,0-5.25,1.43,4.87,4.87,0,0,0-.54,3.21,9.79,9.79,0,0,0,5.37,7.32,8.93,8.93,0,0,1,3.07,2C199.91,298.05,199.76,297.19,200.28,296.66Z"/><path class="cls-2" d="M212.46,313.09c.7-.25,1.48,0,2.2-.15a5.2,5.2,0,0,0,1.17-.55,2.84,2.84,0,0,1,3.31.15,3.59,3.59,0,0,1,.73,1.58,6.67,6.67,0,0,1,.3,2.21,2.52,2.52,0,0,1-1,1.92.68.68,0,0,1-.27.13c-.4.07-.71-.39-.7-.8a8.33,8.33,0,0,1,.29-1.17,2.52,2.52,0,0,0-1.26-2.41,7.46,7.46,0,0,0-2.75-.84"/><path class="cls-2" d="M194.47,301.05c-1.4-.43-2.9.74-3.32,2.15a7.32,7.32,0,0,0,.41,4.32,34.78,34.78,0,0,0,2.06,4.92,3.92,3.92,0,0,0,1,1.35,4.11,4.11,0,0,0,1.31.6q6.53,2.07,13.18,3.68a2,2,0,0,0,1.22,0,1.68,1.68,0,0,0,.73-.67,7.37,7.37,0,0,0,1.35-4.9,137.91,137.91,0,0,0-13.8-4.18c-.11,0-1.31-4.1-1.54-4.55A5,5,0,0,0,194.47,301.05Z"/><path class="cls-2" d="M213,313.26a8.07,8.07,0,0,0,2,.11,8.69,8.69,0,0,1,1-.12,3.76,3.76,0,0,1,3,2.06.7.7,0,0,1,.14.36.73.73,0,0,1-.18.41,3.72,3.72,0,0,1-2.33,1.78,4.3,4.3,0,0,1-1.68-.36,13.94,13.94,0,0,0-3.61-.72c.32,0,.93-3.35,1.08-3.69A1.87,1.87,0,0,0,213,313.26Z"/><path class="cls-2" d="M213.21,316.5a3.46,3.46,0,0,1,1.12-1.35,2.63,2.63,0,0,1,1.09-.66,2.18,2.18,0,0,1,2.13,1.26,5.22,5.22,0,0,1,.74,2.7C218.29,318.33,212.15,319.33,213.21,316.5Z"/><path class="cls-2" d="M237.13,285.11a11.74,11.74,0,0,1,2.51-1.06,3.26,3.26,0,0,1,2.37.52,3.3,3.3,0,0,1,1.3,2c.23-1,.93-1.06,1.51-1.74a4.94,4.94,0,0,0,.84-3.69,2.1,2.1,0,0,0-1.49-1.4,2.42,2.42,0,0,0-2,.45,1.52,1.52,0,0,0-1.32-1.28,6.25,6.25,0,0,0-2,.12,9.64,9.64,0,0,1-3.47-.15,8,8,0,0,0-1.45-.27,3.09,3.09,0,0,0-3,2.48,3.44,3.44,0,0,0,1.79,3.56A5.13,5.13,0,0,0,237.13,285.11Z"/><ellipse class="cls-2" cx="239.75" cy="286.98" rx="0.27" ry="0.67"/><ellipse class="cls-2" cx="236.47" cy="286.98" rx="0.27" ry="0.67"/><path class="cls-2" d="M237.73,287.42l-.46.9.52.47"/><path class="cls-2" d="M239.27,289.89a.41.41,0,0,1-.19.2,1.82,1.82,0,0,1-1.23.21,1.75,1.75,0,0,1-1.06-.65"/><path class="cls-2" d="M240.52,285.37a1.08,1.08,0,0,0-1.38-.14"/><path class="cls-2" d="M237.06,285.31a1.09,1.09,0,0,0-.69-.26,1.11,1.11,0,0,0-.7.23"/><path class="cls-2" d="M243.16,287.05a1.78,1.78,0,0,1,1.25-1.59,1,1,0,0,1,.39,0c.35.07.53.47.58.83a2.27,2.27,0,0,1-1.11,2.18,1,1,0,0,1-1.21,0"/><ellipse class="cls-2" cx="196.72" cy="290.87" rx="0.31" ry="0.76" transform="translate(-110.34 120.52) rotate(-26.91)"/><ellipse class="cls-2" cx="200.06" cy="289.17" rx="0.31" ry="0.76" transform="translate(-109.21 121.85) rotate(-26.91)"/><path class="cls-2" d="M199,290.27l.93.67-.29.75"/><path class="cls-2" d="M198.72,293.58a.48.48,0,0,0,.29.1,2,2,0,0,0,1.37-.42,2,2,0,0,0,.74-1.21"/><path class="cls-2" d="M195.1,289.62a1.23,1.23,0,0,1,.51-.67,1.32,1.32,0,0,1,.82-.19"/><path class="cls-2" d="M198.6,287.77a1.25,1.25,0,0,1,.56-.62A1.3,1.3,0,0,1,200,287"/><path class="cls-2" d="M189.13,288.8a4.34,4.34,0,0,1,2.33-3.78,15.15,15.15,0,0,1,4.44-1.41,9.71,9.71,0,0,0,4.27-1.78,4.63,4.63,0,0,1-2,4A27.25,27.25,0,0,1,194,288a2.79,2.79,0,0,0-1.4,1.24,2,2,0,0,0,.14,1.71,5.92,5.92,0,0,0,1.1,1.39c-.3.23-.5.57-.83.74-.53.28-1.85-1.06-2.27-1.43A4.31,4.31,0,0,1,189.13,288.8Z"/><path class="cls-2" d="M194.07,292.28a1.46,1.46,0,0,0-1.91.28,1.3,1.3,0,0,0,.18,1.53,2,2,0,0,0,1.49.61,1.43,1.43,0,0,0,1.44-.8"/><path class="cls-39" d="M231,361.46c-.41.3-.86.86-.53,1.25a1,1,0,0,0,.53.25,17,17,0,0,0,8-.15,2.4,2.4,0,0,0,2.26-2.38,15.25,15.25,0,0,0-.14-4.67C241,355.07,231.54,361.08,231,361.46Z"/><path class="cls-39" d="M244.28,362.1a4.49,4.49,0,0,0-1.07,1.06,1.29,1.29,0,0,0,0,1.43,1.82,1.82,0,0,0,1.49.49,22.18,22.18,0,0,0,4-.39c1.81-.35,3.75-1.08,4.58-2.72a7.08,7.08,0,0,0,.51-3.3,2.59,2.59,0,0,0-.24-1.33,2.31,2.31,0,0,0-2.41-.74c-1.91.29-2.52,0-3.54,1.71A15,15,0,0,1,244.28,362.1Z"/><path class="cls-40" d="M242.21,339.94,242,354a6.68,6.68,0,0,1-.43,2.71c-1.05,2.22-4.17,2.54-6.48,1.71A292.89,292.89,0,0,1,233.36,321c3.63-.43,7.24-.4,10.89-.61a1.12,1.12,0,0,1,1.41,1A21.43,21.43,0,0,1,242.21,339.94Z"/><path class="cls-41" d="M233.26,313.59a82.08,82.08,0,0,1-12.51,4.2,24.73,24.73,0,0,1-1-4.05,1.93,1.93,0,0,1,.11-1.26,2,2,0,0,1,1.16-.75l7.2-2.48a5.89,5.89,0,0,0,2.5-1.34,6,6,0,0,0,1.12-2.1l2.61-7.05a5.07,5.07,0,0,1,.87-1.68,12.59,12.59,0,0,1,1.81-1.33,4.23,4.23,0,0,0,1.55-3.81c1.35-.36,2.46-.47,3.81-.83a1.81,1.81,0,0,1,1.05-.08,2.34,2.34,0,0,1,1,.84c1.43,1.62,3.84,2.1,5.31,3.69s1.66,3.6,1.9,5.59a32.49,32.49,0,0,1,.2,9.69,31.53,31.53,0,0,1-1.76,5.67l-2.55,6.74a3.09,3.09,0,0,1-1.34,1.88c-1.6.74-3-1.43-4.69-1.92a33.89,33.89,0,0,0,4.6-24.74"/><path class="cls-41" d="M234,301.54c.06,3.48-.48,16.16-.84,19.61a43,43,0,0,0,8.64,1.16,13.19,13.19,0,0,0,3.59-.45,1.19,1.19,0,0,0,.52-.24,1.35,1.35,0,0,0,.24-.46c1.35-3.85,2.72-7.77,2.91-11.85.05-1.24,0-2.49-.07-3.73-.16-3.05-.42-6.18-1.74-8.93"/><path class="cls-42" d="M244.45,285.53c.18-2.07-1.59-3.78-3.4-4.8a4.82,4.82,0,0,0-2-.7,3.58,3.58,0,0,0-3.14,1.78,7.28,7.28,0,0,0-1,3.61,15.31,15.31,0,0,0,.35,4.11,2.54,2.54,0,0,0,1.37,2.05c.3.1.63.08,1,.16a1.68,1.68,0,0,1,1.22,1.72c0-.41,3.65-1.65,4.22-2.63A17,17,0,0,0,244.45,285.53Z"/><path class="cls-40" d="M238.05,327.23c1.67,4.14,3.15,8.36,4.43,12.63a146.52,146.52,0,0,1,4.23,18,9.81,9.81,0,0,0,7.91-.69l-2.47-10.81c-.6-2.64-1.21-5.28-1.67-7.95a76.18,76.18,0,0,1-.8-19.95"/><path class="cls-25" d="M236.76,323.3a1.24,1.24,0,0,0,1.05,1.77q6.54,2.3,13.21,4.18a64.76,64.76,0,0,0,3.19-10.75l-6.69-2.16c-2.05-.67-4.72-2.12-6.87-2.23-1.86-.1-1.72,1.15-2.21,2.87C237.84,319.08,237.26,321.18,236.76,323.3Z"/><path class="cls-42" d="M242.05,323.33a10.79,10.79,0,0,0-.76,3.46,1.16,1.16,0,0,0,.08.58,1.08,1.08,0,0,0,.52.39,5.76,5.76,0,0,0,3,.49.79.79,0,0,0,.87-.66,8,8,0,0,0,.43-2.48,6.82,6.82,0,0,1-3.65-1.8"/><path class="cls-40" d="M209.79,359.53a4.5,4.5,0,0,0,1.43,1.45,5.58,5.58,0,0,0,1.63.29,1.61,1.61,0,0,1,1.35.84,1.27,1.27,0,0,1-.43,1.33,3.08,3.08,0,0,1-1.34.6,7.55,7.55,0,0,1-3.34.17,27.65,27.65,0,0,0-3.18-.85c-.88-.08-1.76.15-2.63,0a1.45,1.45,0,0,1-.73-.28,1.73,1.73,0,0,1-.46-1.15,19.53,19.53,0,0,1-.1-3.42,2.23,2.23,0,0,1,.55-1.6,2.09,2.09,0,0,1,1.29-.38A6.78,6.78,0,0,1,209.79,359.53Z"/><path class="cls-40" d="M191.4,360.17a4.47,4.47,0,0,0,.61,1.95,6,6,0,0,0,1.32,1,1.59,1.59,0,0,1,.81,1.36,1.29,1.29,0,0,1-1,1,3.15,3.15,0,0,1-1.46-.08,7.67,7.67,0,0,1-3.05-1.37,28.53,28.53,0,0,0-2.45-2.22c-.74-.46-1.63-.66-2.35-1.16a1.52,1.52,0,0,1-.52-.58,1.74,1.74,0,0,1,.12-1.24,18.6,18.6,0,0,1,1.47-3.09,2.21,2.21,0,0,1,1.22-1.17,2.06,2.06,0,0,1,1.32.24A6.83,6.83,0,0,1,191.4,360.17Z"/><path class="cls-43" d="M208.88,356.61a1.31,1.31,0,0,1,0,.65c-.11.38-.53.57-.9.69a9.41,9.41,0,0,1-5.18.19,1.81,1.81,0,0,1-.86-.41,2,2,0,0,1-.43-1.05c-1.68-8.72-3.11-17.57-6.33-25.86-.31-.8-.53-1.91.21-2.34a1.75,1.75,0,0,1,.79-.17c1.25-.08,5.09-.78,6.06.12.53.49.58,2.05.73,2.7l.81,3.53L207,348.61Z"/><path class="cls-43" d="M192.72,340.31a6.3,6.3,0,0,1,0,1.89,6.11,6.11,0,0,1-.86,2c-2.19,3.66-4.86,7-7.25,10.53a.59.59,0,0,0-.15.45.55.55,0,0,0,.25.31,10.48,10.48,0,0,0,7.33,2.1l7.08-13a5.53,5.53,0,0,0,.74-1.9,5.72,5.72,0,0,0-.09-1.49l-2-12.87a1.08,1.08,0,0,0-.2-.56,1,1,0,0,0-.71-.23,14.29,14.29,0,0,0-4.27.47c-1.87.5-1.74.81-1.42,2.6Q192.1,335.42,192.72,340.31Z"/><path class="cls-41" d="M244.49,291.87c1.43,1.62,3.84,2.1,5.31,3.69s1.66,3.6,1.9,5.59a32.49,32.49,0,0,1,.2,9.69,31.53,31.53,0,0,1-1.76,5.67l-2.55,6.74a3.09,3.09,0,0,1-1.34,1.88c-1.6.74-3-1.43-4.69-1.92a33.89,33.89,0,0,0,4.6-24.74"/><path class="cls-20" d="M194.77,298.12c-.57,1.4-1.9,2.33-2.74,3.58a11.18,11.18,0,0,0-1.47,5.16,123.23,123.23,0,0,0-.53,20.6,1.79,1.79,0,0,0,.39,1.24,1.74,1.74,0,0,0,.9.38,29.38,29.38,0,0,0,10.9.25,1.76,1.76,0,0,0,1.38-.72,1.79,1.79,0,0,0,.13-.83,130.73,130.73,0,0,0-4.08-31.31,3.24,3.24,0,0,0-.53-1.25,5.18,5.18,0,0,0-3.66-.9C194.61,294.65,195.2,297.05,194.77,298.12Z"/><path class="cls-32" d="M200.28,296.66a3.5,3.5,0,0,1,.78-.51,4,4,0,0,0,1.75-3.52,8.11,8.11,0,0,0-1.27-3.87,8.69,8.69,0,0,0-4.18-4,4.42,4.42,0,0,0-5.25,1.43,4.87,4.87,0,0,0-.54,3.21,9.79,9.79,0,0,0,5.37,7.32,8.93,8.93,0,0,1,3.07,2C199.91,298.05,199.76,297.19,200.28,296.66Z"/><path class="cls-42" d="M212.46,313.09c.7-.25,1.48,0,2.2-.15a5.2,5.2,0,0,0,1.17-.55,2.84,2.84,0,0,1,3.31.15,3.59,3.59,0,0,1,.73,1.58,6.67,6.67,0,0,1,.3,2.21,2.52,2.52,0,0,1-1,1.92.68.68,0,0,1-.27.13c-.4.07-.71-.39-.7-.8a8.33,8.33,0,0,1,.29-1.17,2.52,2.52,0,0,0-1.26-2.41,7.46,7.46,0,0,0-2.75-.84"/><path class="cls-20" d="M194.47,301.05c-1.4-.43-2.9.74-3.32,2.15a7.32,7.32,0,0,0,.41,4.32,34.78,34.78,0,0,0,2.06,4.92,3.92,3.92,0,0,0,1,1.35,4.11,4.11,0,0,0,1.31.6q6.53,2.07,13.18,3.68a2,2,0,0,0,1.22,0,1.68,1.68,0,0,0,.73-.67,7.37,7.37,0,0,0,1.35-4.9,137.91,137.91,0,0,0-13.8-4.18c-.11,0-1.31-4.1-1.54-4.55A5,5,0,0,0,194.47,301.05Z"/><path class="cls-32" d="M213,313.26a8.07,8.07,0,0,0,2,.11,8.69,8.69,0,0,1,1-.12,3.76,3.76,0,0,1,3,2.06.7.7,0,0,1,.14.36.73.73,0,0,1-.18.41,3.72,3.72,0,0,1-2.33,1.78,4.3,4.3,0,0,1-1.68-.36,13.94,13.94,0,0,0-3.61-.72c.32,0,.93-3.35,1.08-3.69A1.87,1.87,0,0,0,213,313.26Z"/><path class="cls-42" d="M213.21,316.5a3.46,3.46,0,0,1,1.12-1.35,2.63,2.63,0,0,1,1.09-.66,2.18,2.18,0,0,1,2.13,1.26,5.22,5.22,0,0,1,.74,2.7C218.29,318.33,212.15,319.33,213.21,316.5Z"/><path class="cls-26" d="M237.13,285.11a11.74,11.74,0,0,1,2.51-1.06,3.26,3.26,0,0,1,2.37.52,3.3,3.3,0,0,1,1.3,2c.23-1,.93-1.06,1.51-1.74a4.94,4.94,0,0,0,.84-3.69,2.1,2.1,0,0,0-1.49-1.4,2.42,2.42,0,0,0-2,.45,1.52,1.52,0,0,0-1.32-1.28,6.25,6.25,0,0,0-2,.12,9.64,9.64,0,0,1-3.47-.15,8,8,0,0,0-1.45-.27,3.09,3.09,0,0,0-3,2.48,3.44,3.44,0,0,0,1.79,3.56A5.13,5.13,0,0,0,237.13,285.11Z"/><ellipse class="cls-5" cx="239.75" cy="286.98" rx="0.27" ry="0.67"/><ellipse class="cls-5" cx="236.47" cy="286.98" rx="0.27" ry="0.67"/><path class="cls-5" d="M237.73,287.42l-.46.9.52.47"/><path class="cls-5" d="M239.27,289.89a.41.41,0,0,1-.19.2,1.82,1.82,0,0,1-1.23.21,1.75,1.75,0,0,1-1.06-.65"/><path class="cls-5" d="M240.52,285.37a1.08,1.08,0,0,0-1.38-.14"/><path class="cls-5" d="M237.06,285.31a1.09,1.09,0,0,0-.69-.26,1.11,1.11,0,0,0-.7.23"/><path class="cls-42" d="M243.16,287.05a1.78,1.78,0,0,1,1.25-1.59,1,1,0,0,1,.39,0c.35.07.53.47.58.83a2.27,2.27,0,0,1-1.11,2.18,1,1,0,0,1-1.21,0"/><ellipse class="cls-5" cx="196.72" cy="290.87" rx="0.31" ry="0.76" transform="translate(-110.34 120.52) rotate(-26.91)"/><ellipse class="cls-5" cx="200.06" cy="289.17" rx="0.31" ry="0.76" transform="translate(-109.21 121.85) rotate(-26.91)"/><path class="cls-5" d="M199,290.27l.93.67-.29.75"/><path class="cls-5" d="M198.72,293.58a.48.48,0,0,0,.29.1,2,2,0,0,0,1.37-.42,2,2,0,0,0,.74-1.21"/><path class="cls-5" d="M195.1,289.62a1.23,1.23,0,0,1,.51-.67,1.32,1.32,0,0,1,.82-.19"/><path class="cls-5" d="M198.6,287.77a1.25,1.25,0,0,1,.56-.62A1.3,1.3,0,0,1,200,287"/><path class="cls-44" d="M189.13,288.8a4.34,4.34,0,0,1,2.33-3.78,15.15,15.15,0,0,1,4.44-1.41,9.71,9.71,0,0,0,4.27-1.78,4.63,4.63,0,0,1-2,4A27.25,27.25,0,0,1,194,288a2.79,2.79,0,0,0-1.4,1.24,2,2,0,0,0,.14,1.71,5.92,5.92,0,0,0,1.1,1.39c-.3.23-.5.57-.83.74-.53.28-1.85-1.06-2.27-1.43A4.31,4.31,0,0,1,189.13,288.8Z"/><path class="cls-32" d="M194.07,292.28a1.46,1.46,0,0,0-1.91.28,1.3,1.3,0,0,0,.18,1.53,2,2,0,0,0,1.49.61,1.43,1.43,0,0,0,1.44-.8"/><rect id="Startup_Floor" data-name="Startup Floor" class="cls-18" x="108.28" y="360.48" width="221.76" height="6.76"/><g id="Startup_Ferns_Right" data-name="Startup Ferns Right"><path class="cls-2" d="M336.33,338.29c11.93-1.78,22.92-12,26.65-22.85,2.8-8.18,2.91-17,2.23-25.65-.12-1.51-.39-3.24-1.68-4-2.1-1.29-4.61,1-5.62,3.29a19.22,19.22,0,0,0-1.57,9.81c-2.45-9.92,1.41-20.23,1.72-30.44.07-2.45-.23-5.24-2.2-6.69s-5-.82-6.75.9a11.61,11.61,0,0,0-2.94,6.65A149.64,149.64,0,0,1,348.69,245c.82-4.36,1.59-9.58-1.65-12.63a8.19,8.19,0,0,0-7.39-1.65,17,17,0,0,0-6.86,3.75,39.24,39.24,0,0,0-14.06,31.08c-.34-2.87-1.73-6.63-4.6-6.25a4.78,4.78,0,0,0-2.75,1.78c-3.71,4.19-5,10-5.31,15.59a58.43,58.43,0,0,0,9.34,35.11c-1.37-2.2-2.44-4.43-4.07-6.14s-4.31-2.67-6.42-1.6c-2.87,1.44-3.11,5.44-2.49,8.59,2.33,11.76,12.47,21.76,24,25.05A23.2,23.2,0,0,0,336.33,338.29Z"/><path class="cls-2" d="M335.08,266.7a486.28,486.28,0,0,0-1.5,75.17"/><path class="cls-2" d="M337.1,343.71a18.67,18.67,0,0,1,8.92-8.94c4-1.69,8.9-1.34,12.13,1.49s4.1,8.26,1.35,11.57a2.78,2.78,0,1,1,2.24,4.73c2.92.48,5,3.43,5.14,6.38a11.44,11.44,0,0,1-3.31,8,19.3,19.3,0,0,1-17.85,5.6,22,22,0,0,1-14.88-11.66c-1.74-3.48-4.33-10.08-3.84-14.07A5.88,5.88,0,0,1,337.1,343.71Z"/><path class="cls-2" d="M298.83,359.84a8.43,8.43,0,0,1,2.35-6.74c1.82-1.66,4.88-2,6.74-.41a3.68,3.68,0,0,1,.63-5.31c1.73-1.06,4.45.29,4.41,2.31-.76-4.58,2.74-9,7-10.81a8.3,8.3,0,0,1,6.14-.42c4,1.59,4.81,6.8,5,11.1-.5-2,2.15-3.73,3.94-2.77s2.09,3.68.84,5.27c.68-1.51,2.79-1.92,4.3-1.24a7.9,7.9,0,0,1,3.33,3.59,18.08,18.08,0,0,1,2.54,9.87,10.43,10.43,0,0,1-5.1,8.48,17.11,17.11,0,0,1-5.93,1.46C324.48,375.5,299.79,375.43,298.83,359.84Z"/><path class="cls-45" d="M336.33,338.29c11.93-1.78,22.92-12,26.65-22.85,2.8-8.18,2.91-17,2.23-25.65-.12-1.51-.39-3.24-1.68-4-2.1-1.29-4.61,1-5.62,3.29a19.22,19.22,0,0,0-1.57,9.81c-2.45-9.92,1.41-20.23,1.72-30.44.07-2.45-.23-5.24-2.2-6.69s-5-.82-6.75.9a11.61,11.61,0,0,0-2.94,6.65A149.64,149.64,0,0,1,348.69,245c.82-4.36,1.59-9.58-1.65-12.63a8.19,8.19,0,0,0-7.39-1.65,17,17,0,0,0-6.86,3.75,39.24,39.24,0,0,0-14.06,31.08c-.34-2.87-1.73-6.63-4.6-6.25a4.78,4.78,0,0,0-2.75,1.78c-3.71,4.19-5,10-5.31,15.59a58.43,58.43,0,0,0,9.34,35.11c-1.37-2.2-2.44-4.43-4.07-6.14s-4.31-2.67-6.42-1.6c-2.87,1.44-3.11,5.44-2.49,8.59,2.33,11.76,12.47,21.76,24,25.05A23.2,23.2,0,0,0,336.33,338.29Z"/><path class="cls-5" d="M335.08,266.7a486.28,486.28,0,0,0-1.5,75.17"/><path class="cls-46" d="M337.1,343.71a18.67,18.67,0,0,1,8.92-8.94c4-1.69,8.9-1.34,12.13,1.49s4.1,8.26,1.35,11.57a2.78,2.78,0,1,1,2.24,4.73c2.92.48,5,3.43,5.14,6.38a11.44,11.44,0,0,1-3.31,8,19.3,19.3,0,0,1-17.85,5.6,22,22,0,0,1-14.88-11.66c-1.74-3.48-4.33-10.08-3.84-14.07A5.88,5.88,0,0,1,337.1,343.71Z"/><path class="cls-41" d="M298.83,359.84a8.43,8.43,0,0,1,2.35-6.74c1.82-1.66,4.88-2,6.74-.41a3.68,3.68,0,0,1,.63-5.31c1.73-1.06,4.45.29,4.41,2.31-.76-4.58,2.74-9,7-10.81a8.3,8.3,0,0,1,6.14-.42c4,1.59,4.81,6.8,5,11.1-.5-2,2.15-3.73,3.94-2.77s2.09,3.68.84,5.27c.68-1.51,2.79-1.92,4.3-1.24a7.9,7.9,0,0,1,3.33,3.59,18.08,18.08,0,0,1,2.54,9.87,10.43,10.43,0,0,1-5.1,8.48,17.11,17.11,0,0,1-5.93,1.46C324.48,375.5,299.79,375.43,298.83,359.84Z"/><polyline class="cls-5" points="325.39 282.71 333.41 288.96 341.17 284.2"/><polyline class="cls-5" points="325.39 309.53 332.79 315.62 341.17 309.53"/><path class="cls-47" d="M363.57,366.92a12.62,12.62,0,0,0,3.15-5.91,18.56,18.56,0,0,1-15.92,7.67,6.64,6.64,0,0,1-3.42-.95,3,3,0,0,1-1.34-3.11c-3.89,4.43-10,6.21-15.91,6.63a45.56,45.56,0,0,1-24.71-5.33,18.43,18.43,0,0,1-5.66-4.3,10.85,10.85,0,0,1-.87-1.26c1.48,15.06,25.71,15.12,36.16,13.86a17.11,17.11,0,0,0,5.93-1.46,9,9,0,0,0,1.64-1.15,19.67,19.67,0,0,0,3.1.91A19.3,19.3,0,0,0,363.57,366.92Z"/><path class="cls-48" d="M363,315.44c2.8-8.18,2.91-17,2.23-25.65a8.32,8.32,0,0,0-.56-2.67c0,6.82-.33,13.72-2.24,20.27-3,10.19-10.08,19.41-19.83,23.62a30.9,30.9,0,0,1-36.89-9.69,35.6,35.6,0,0,0,20.75,16.38,23.2,23.2,0,0,0,9.89.59C348.26,336.51,359.25,326.34,363,315.44Z"/></g><g id="Startup_Ferns_Left" data-name="Startup Ferns Left"><path class="cls-5" d="M92.2,372.2c-5.19-4-10.4-8.12-14.66-13.12S70,348,69.28,341.5c-.23-2-.16-4.19,1-5.83s3.78-2.38,5.26-1c1,.9,1.68,2.63,3,2.31.91-.22,1.19-1.38,1.18-2.32a10.79,10.79,0,0,0-3.29-7.52c-1.83-1.75-4.21-2.79-6.2-4.34A15.09,15.09,0,0,1,65.27,316a7.2,7.2,0,0,1-.27-5,3.63,3.63,0,0,1,4-2.4c.76.2,1.41.71,2.18.84s1.76-.41,1.6-1.18a1.7,1.7,0,0,0-.24-.51c-1.61-2.44-4.21-4-6.7-5.52s-5.07-3.15-6.55-5.66-1.51-6.15.75-8,5.53-1.21,8.1,0a30,30,0,0,1,8.14,6.27,115.74,115.74,0,0,1,10.81,13.73,3,3,0,0,1,2.58-2.73,5.7,5.7,0,0,1,3.87,1c4.32,2.76,6.16,8.14,6.8,13.21s.41,10.32,1.94,15.21a11.23,11.23,0,0,1-.08-6.37,3.37,3.37,0,0,1,2.09-2.58c1.39-.32,2.63.92,3.39,2.13,2.68,4.26,3.36,9.46,3.72,14.49q.45,6.08.41,12.19c0,4.29-.25,8.68-1.84,12.68a14.74,14.74,0,0,1-7.61,8.24C98.57,377.69,95.1,374.45,92.2,372.2Z"/><path class="cls-2" d="M98.61,236.78a21.65,21.65,0,0,1,20.21,11.82c1.26,2.59,2.17,5.65,4.64,7.12a16.78,16.78,0,0,0,3,1.17,16,16,0,0,1,7.07,25.05c2.22,2.39,2.34,6.18,1.09,9.19s-3.65,5.39-6.1,7.54a35.85,35.85,0,0,1-8,5.58c-6.92,3.31-15,2.87-22.63,2.08a122.6,122.6,0,0,1-13.36-2c-4.55-1-9.25-2.56-12.33-6.06s-3.8-9.42-.42-12.63a22.91,22.91,0,0,1,.34-30.12c2.38-2.69,8.15-6.19,8.15-6.19s4-6.13,7.31-8.51A21.21,21.21,0,0,1,98.61,236.78Z"/><path class="cls-2" d="M100.38,307.1c1.22-2.77,3.05-5.64,6-6.42,4-1.05,7.77,2.25,9.74,5.82s1.77,10.65,5.85,10.7c1.72,0,.77-3.23.37-4.9s-.46-3.85,1.06-4.65a2.77,2.77,0,0,1,3,.57,7.18,7.18,0,0,1,1.71,2.76c4,9.75,4,20.79,1.55,31s-7.36,19.72-13,28.6c-1.15,1.82-3,3.88-5.06,3.14a4.58,4.58,0,0,1-2.15-2.21,58,58,0,0,1-4.38-9.95C99.16,345,92.86,324.16,100.38,307.1Z"/><path class="cls-2" d="M92.2,372.2c-5.19-4-10.4-8.12-14.66-13.12S70,348,69.28,341.5c-.23-2-.16-4.19,1-5.83s3.78-2.38,5.26-1c1,.9,1.68,2.63,3,2.31.91-.22,1.19-1.38,1.18-2.32a10.79,10.79,0,0,0-3.29-7.52c-1.83-1.75-4.21-2.79-6.2-4.34A15.09,15.09,0,0,1,65.27,316a7.2,7.2,0,0,1-.27-5,3.63,3.63,0,0,1,4-2.4c.76.2,1.41.71,2.18.84s1.76-.41,1.6-1.18a1.7,1.7,0,0,0-.24-.51c-1.61-2.44-4.21-4-6.7-5.52s-5.07-3.15-6.55-5.66-1.51-6.15.75-8,5.53-1.21,8.1,0a30,30,0,0,1,8.14,6.27,115.74,115.74,0,0,1,10.81,13.73,3,3,0,0,1,2.58-2.73,5.7,5.7,0,0,1,3.87,1c4.32,2.76,6.16,8.14,6.8,13.21s.41,10.32,1.94,15.21a11.23,11.23,0,0,1-.08-6.37,3.37,3.37,0,0,1,2.09-2.58c1.39-.32,2.63.92,3.39,2.13,2.68,4.26,3.36,9.46,3.72,14.49q.45,6.08.41,12.19c0,4.29-.25,8.68-1.84,12.68a14.74,14.74,0,0,1-7.61,8.24C98.57,377.69,95.1,374.45,92.2,372.2Z"/><path class="cls-46" d="M98.61,236.78a21.65,21.65,0,0,1,20.21,11.82c1.26,2.59,2.17,5.65,4.64,7.12a16.78,16.78,0,0,0,3,1.17,16,16,0,0,1,7.07,25.05c2.22,2.39,2.34,6.18,1.09,9.19s-3.65,5.39-6.1,7.54a35.85,35.85,0,0,1-8,5.58c-6.92,3.31-15,2.87-22.63,2.08a122.6,122.6,0,0,1-13.36-2c-4.55-1-9.25-2.56-12.33-6.06s-3.8-9.42-.42-12.63a22.91,22.91,0,0,1,.34-30.12c2.38-2.69,8.15-6.19,8.15-6.19s4-6.13,7.31-8.51A21.21,21.21,0,0,1,98.61,236.78Z"/><path class="cls-45" d="M100.38,307.1c1.22-2.77,3.05-5.64,6-6.42,4-1.05,7.77,2.25,9.74,5.82s1.77,10.65,5.85,10.7c1.72,0,.77-3.23.37-4.9s-.46-3.85,1.06-4.65a2.77,2.77,0,0,1,3,.57,7.18,7.18,0,0,1,1.71,2.76c4,9.75,4,20.79,1.55,31s-7.36,19.72-13,28.6c-1.15,1.82-3,3.88-5.06,3.14a4.58,4.58,0,0,1-2.15-2.21,58,58,0,0,1-4.38-9.95C99.16,345,92.86,324.16,100.38,307.1Z"/><path class="cls-41" d="M92.2,372.2c-5.19-4-10.4-8.12-14.66-13.12S70,348,69.28,341.5c-.23-2-.16-4.19,1-5.83s3.78-2.38,5.26-1c1,.9,1.68,2.63,3,2.31.91-.22,1.19-1.38,1.18-2.32a10.79,10.79,0,0,0-3.29-7.52c-1.83-1.75-4.21-2.79-6.2-4.34A15.09,15.09,0,0,1,65.27,316a7.2,7.2,0,0,1-.27-5,3.63,3.63,0,0,1,4-2.4c.76.2,1.41.71,2.18.84s1.76-.41,1.6-1.18a1.7,1.7,0,0,0-.24-.51c-1.61-2.44-4.21-4-6.7-5.52s-5.07-3.15-6.55-5.66-1.51-6.15.75-8,5.53-1.21,8.1,0a30,30,0,0,1,8.14,6.27,115.74,115.74,0,0,1,10.81,13.73,3,3,0,0,1,2.58-2.73,5.7,5.7,0,0,1,3.87,1c4.32,2.76,6.16,8.14,6.8,13.21s.41,10.32,1.94,15.21a11.23,11.23,0,0,1-.08-6.37,3.37,3.37,0,0,1,2.09-2.58c1.39-.32,2.63.92,3.39,2.13,2.68,4.26,3.36,9.46,3.72,14.49q.45,6.08.41,12.19c0,4.29-.25,8.68-1.84,12.68a14.74,14.74,0,0,1-7.61,8.24C98.57,377.69,95.1,374.45,92.2,372.2Z"/><path class="cls-5" d="M96.49,252.82c.07,1.9,1.76,42.34,3,56.55"/><path class="cls-5" d="M109.86,313.93c4.26,5.21,6,12.05,6.82,18.72.37,2.83.61,5.68.73,8.53a99.07,99.07,0,0,1-9.13,45.75"/><path class="cls-5" d="M83,317c5.78,7.43,8.59,16.69,11.18,25.74,1.06,3.7,2.11,7.4,3,11.13a163.17,163.17,0,0,1,3.89,22.93c0,.15,0,.3,0,.45q.48,5.07.64,10.14"/><polyline class="cls-5" points="86.32 271.82 97.62 278.01 109.25 270.06"/><polyline class="cls-5" points="90.51 291.78 98.61 296.67 106.93 290.43"/><path class="cls-47" d="M127.81,348c-2.69,6.69-7.48,12.28-12.19,17.74a1.69,1.69,0,0,1-1.14.76c-.83,0-1.2-1-1.32-1.84l-1.32-9.16a46.8,46.8,0,0,1-6.79,12.6c-1.17,1.55-2.63,3.14-4.56,3.38s-3.7-.92-5.29-2c-5.61-3.9-11.25-7.82-16.14-12.59a44.87,44.87,0,0,1-9.32-12.64,35.17,35.17,0,0,0,7.8,14.83c4.26,5,9.47,9.1,14.66,13.12,2.9,2.25,6.37,5.49,10.18,3.92a13.88,13.88,0,0,0,6.4-5.8c.21.41.44.81.67,1.21a4.58,4.58,0,0,0,2.15,2.21c2,.74,3.91-1.32,5.06-3.14a103.71,103.71,0,0,0,11.7-24C128.17,347.08,128,347.55,127.81,348Z"/><path class="cls-47" d="M115.76,305.92a24.32,24.32,0,0,0,4.72-1.67,35.85,35.85,0,0,0,8-5.58l.33-.29A44.3,44.3,0,0,1,113,302.62,13.82,13.82,0,0,1,115.76,305.92Z"/><path class="cls-47" d="M76.3,294.88A88,88,0,0,1,84,304.22l.53.12a122.6,122.6,0,0,0,13.36,2l2.76.26a15.11,15.11,0,0,1,2.47-3.84,105,105,0,0,1-11-1.2c-3.83-.61-8.08-1.64-10.1-4.94-1.89-3.08-1.17-7-.39-10.54a9.07,9.07,0,0,1-7.1-4.91,18.51,18.51,0,0,1-1.88-8.72,39.32,39.32,0,0,1,7.08-22.78c-1.46.92-5.68,3.67-7.63,5.87a22.91,22.91,0,0,0-.34,30.12,7.19,7.19,0,0,0-2,3.8A32.76,32.76,0,0,1,76.3,294.88Z"/></g><g id="Startup_Lamp_2" data-name="Startup Lamp 2"><circle class="cls-49" cx="291.03" cy="292.76" r="24.2"/><circle class="cls-49" cx="291.03" cy="292.76" r="15.5"/><line class="cls-4" x1="291.03" y1="282.34" x2="291.03" y2="266.7"/><rect class="cls-50" x="284.98" y="282.34" width="12.1" height="20.85"/></g><g id="Startup_Lamp_1" data-name="Startup Lamp 1"><circle class="cls-49" cx="150.48" cy="292.76" r="24.2"/><circle class="cls-49" cx="150.48" cy="292.76" r="15.5"/><line class="cls-4" x1="150.48" y1="282.34" x2="150.48" y2="266.7"/><rect class="cls-50" x="144.43" y="282.34" width="12.1" height="20.85"/></g></g></g></svg>